<mxfile host="app.diagrams.net" agent="Mozilla/5.0 (Windows NT 10.0; Win64; x64) AppleWebKit/537.36 (KHTML, like Gecko) Chrome/134.0.0.0 Safari/537.36 OPR/119.0.0.0" version="24.7.16">
  <diagram name="Página-1" id="hhc9cbq-SZLJg6HL9Cej">
    <mxGraphModel grid="1" page="1" gridSize="10" guides="1" tooltips="1" connect="1" arrows="1" fold="1" pageScale="1" pageWidth="827" pageHeight="1169" math="0" shadow="0">
      <root>
        <mxCell id="0" />
        <mxCell id="1" parent="0" />
        <mxCell id="KsWK_WaDj9zSZEOz1UFS-8" style="edgeStyle=orthogonalEdgeStyle;rounded=0;orthogonalLoop=1;jettySize=auto;html=1;exitX=0.5;exitY=1;exitDx=0;exitDy=0;entryX=0.5;entryY=0;entryDx=0;entryDy=0;endArrow=none;startFill=0;labelBackgroundColor=none;strokeColor=#23445D;fontColor=default;" edge="1" parent="1" source="Ar97DFepAcvgZv9MPQC0-14" target="EKdhJ5Bb1jWlvwmiai8i-14">
          <mxGeometry relative="1" as="geometry" />
        </mxCell>
        <mxCell id="Ar97DFepAcvgZv9MPQC0-14" value="" style="rhombus;whiteSpace=wrap;html=1;labelBackgroundColor=none;fillColor=#182E3E;strokeColor=#FFFFFF;fontColor=#FFFFFF;" vertex="1" parent="1">
          <mxGeometry x="684.5" y="545" width="90" height="90" as="geometry" />
        </mxCell>
        <mxCell id="EKdhJ5Bb1jWlvwmiai8i-15" value="" style="rounded=0;whiteSpace=wrap;html=1;labelBackgroundColor=none;fillColor=#182E3E;strokeColor=#FFFFFF;fontColor=#FFFFFF;" vertex="1" parent="1">
          <mxGeometry x="2425" y="1235" width="130" height="70" as="geometry" />
        </mxCell>
        <mxCell id="EKdhJ5Bb1jWlvwmiai8i-14" value="" style="rounded=0;whiteSpace=wrap;html=1;labelBackgroundColor=none;fillColor=#182E3E;strokeColor=#FFFFFF;fontColor=#FFFFFF;" vertex="1" parent="1">
          <mxGeometry x="664.5" y="700" width="130" height="70" as="geometry" />
        </mxCell>
        <mxCell id="0WnZ42bVohGaUP7WQ3oe-2" style="edgeStyle=orthogonalEdgeStyle;rounded=0;orthogonalLoop=1;jettySize=auto;html=1;exitX=0.5;exitY=1;exitDx=0;exitDy=0;entryX=1;entryY=0.5;entryDx=0;entryDy=0;endArrow=none;startFill=0;labelBackgroundColor=none;strokeColor=#23445D;fontColor=default;" edge="1" parent="1" source="yaPjAHGIPYrJlEL3h2rD-1" target="0WnZ42bVohGaUP7WQ3oe-1">
          <mxGeometry relative="1" as="geometry">
            <mxPoint x="605" y="450" as="targetPoint" />
          </mxGeometry>
        </mxCell>
        <mxCell id="Ar97DFepAcvgZv9MPQC0-9" value="1" style="edgeLabel;html=1;align=center;verticalAlign=middle;resizable=0;points=[];fontSize=18;labelBackgroundColor=none;fontColor=#FFFFFF;" vertex="1" connectable="0" parent="0WnZ42bVohGaUP7WQ3oe-2">
          <mxGeometry x="-0.8178" y="3" relative="1" as="geometry">
            <mxPoint x="13" y="-12" as="offset" />
          </mxGeometry>
        </mxCell>
        <mxCell id="yaPjAHGIPYrJlEL3h2rD-1" value="Comercio" style="rounded=0;whiteSpace=wrap;html=1;labelBackgroundColor=none;fillColor=#182E3E;strokeColor=#FFFFFF;fontColor=#FFFFFF;" vertex="1" parent="1">
          <mxGeometry x="514.5" y="170" width="120" height="60" as="geometry" />
        </mxCell>
        <mxCell id="yaPjAHGIPYrJlEL3h2rD-13" style="edgeStyle=orthogonalEdgeStyle;rounded=0;orthogonalLoop=1;jettySize=auto;html=1;exitDx=0;exitDy=0;entryDx=0;entryDy=0;noEdgeStyle=1;orthogonal=1;endArrow=none;startFill=0;labelBackgroundColor=none;strokeColor=#23445D;fontColor=default;" edge="1" parent="1" source="yaPjAHGIPYrJlEL3h2rD-2" target="yaPjAHGIPYrJlEL3h2rD-1">
          <mxGeometry relative="1" as="geometry">
            <Array as="points">
              <mxPoint x="55" y="82" />
              <mxPoint x="526.375" y="158" />
            </Array>
          </mxGeometry>
        </mxCell>
        <mxCell id="yaPjAHGIPYrJlEL3h2rD-2" value="&lt;span&gt;nombre&lt;/span&gt;" style="ellipse;whiteSpace=wrap;html=1;fontStyle=0;labelBackgroundColor=none;fillColor=#182E3E;strokeColor=#FFFFFF;fontColor=#FFFFFF;" vertex="1" parent="1">
          <mxGeometry y="5" width="110" height="60" as="geometry" />
        </mxCell>
        <mxCell id="yaPjAHGIPYrJlEL3h2rD-14" style="edgeStyle=orthogonalEdgeStyle;rounded=0;orthogonalLoop=1;jettySize=auto;html=1;exitDx=0;exitDy=0;entryDx=0;entryDy=0;curved=0;noEdgeStyle=1;orthogonal=1;endArrow=none;startFill=0;labelBackgroundColor=none;strokeColor=#23445D;fontColor=default;" edge="1" parent="1" source="yaPjAHGIPYrJlEL3h2rD-3" target="yaPjAHGIPYrJlEL3h2rD-1">
          <mxGeometry relative="1" as="geometry">
            <Array as="points">
              <mxPoint x="200" y="82" />
              <mxPoint x="540.125" y="156" />
            </Array>
          </mxGeometry>
        </mxCell>
        <mxCell id="yaPjAHGIPYrJlEL3h2rD-3" value="fechaRegistro" style="ellipse;whiteSpace=wrap;html=1;labelBackgroundColor=none;fillColor=#182E3E;strokeColor=#FFFFFF;fontColor=#FFFFFF;" vertex="1" parent="1">
          <mxGeometry x="140" y="3" width="120" height="65" as="geometry" />
        </mxCell>
        <mxCell id="yaPjAHGIPYrJlEL3h2rD-15" style="edgeStyle=orthogonalEdgeStyle;rounded=0;orthogonalLoop=1;jettySize=auto;html=1;exitDx=0;exitDy=0;entryDx=0;entryDy=0;noEdgeStyle=1;orthogonal=1;endArrow=none;startFill=0;labelBackgroundColor=none;strokeColor=#23445D;fontColor=default;" edge="1" parent="1" source="yaPjAHGIPYrJlEL3h2rD-4" target="yaPjAHGIPYrJlEL3h2rD-1">
          <mxGeometry relative="1" as="geometry">
            <Array as="points">
              <mxPoint x="350" y="82" />
              <mxPoint x="553.875" y="154" />
            </Array>
          </mxGeometry>
        </mxCell>
        <mxCell id="yaPjAHGIPYrJlEL3h2rD-4" value="ubicacion" style="ellipse;whiteSpace=wrap;html=1;labelBackgroundColor=none;fillColor=#182E3E;strokeColor=#FFFFFF;fontColor=#FFFFFF;" vertex="1" parent="1">
          <mxGeometry x="290" y="5" width="120" height="60" as="geometry" />
        </mxCell>
        <mxCell id="yaPjAHGIPYrJlEL3h2rD-16" style="edgeStyle=orthogonalEdgeStyle;rounded=0;orthogonalLoop=1;jettySize=auto;html=1;exitDx=0;exitDy=0;entryDx=0;entryDy=0;noEdgeStyle=1;orthogonal=1;endArrow=none;startFill=0;labelBackgroundColor=none;strokeColor=#23445D;fontColor=default;" edge="1" parent="1" target="yaPjAHGIPYrJlEL3h2rD-1">
          <mxGeometry relative="1" as="geometry">
            <Array as="points">
              <mxPoint x="500" y="82" />
              <mxPoint x="567.625" y="152" />
            </Array>
            <mxPoint x="499.9999999999998" y="70" as="sourcePoint" />
          </mxGeometry>
        </mxCell>
        <mxCell id="yaPjAHGIPYrJlEL3h2rD-6" value="telefono" style="ellipse;whiteSpace=wrap;html=1;labelBackgroundColor=none;fillColor=#182E3E;strokeColor=#FFFFFF;fontColor=#FFFFFF;" vertex="1" parent="1">
          <mxGeometry x="445" y="5.5" width="115" height="64.5" as="geometry" />
        </mxCell>
        <mxCell id="yaPjAHGIPYrJlEL3h2rD-17" style="edgeStyle=orthogonalEdgeStyle;rounded=0;orthogonalLoop=1;jettySize=auto;html=1;exitDx=0;exitDy=0;entryDx=0;entryDy=0;noEdgeStyle=1;orthogonal=1;endArrow=none;startFill=0;labelBackgroundColor=none;strokeColor=#23445D;fontColor=default;" edge="1" parent="1" source="yaPjAHGIPYrJlEL3h2rD-7" target="yaPjAHGIPYrJlEL3h2rD-1">
          <mxGeometry relative="1" as="geometry">
            <Array as="points">
              <mxPoint x="649" y="82" />
              <mxPoint x="581.375" y="152" />
            </Array>
          </mxGeometry>
        </mxCell>
        <mxCell id="yaPjAHGIPYrJlEL3h2rD-7" value="correoElectronico" style="ellipse;whiteSpace=wrap;html=1;labelBackgroundColor=none;fillColor=#182E3E;strokeColor=#FFFFFF;fontColor=#FFFFFF;" vertex="1" parent="1">
          <mxGeometry x="590" y="5" width="118" height="60" as="geometry" />
        </mxCell>
        <mxCell id="yaPjAHGIPYrJlEL3h2rD-18" style="edgeStyle=orthogonalEdgeStyle;rounded=0;orthogonalLoop=1;jettySize=auto;html=1;exitDx=0;exitDy=0;entryDx=0;entryDy=0;noEdgeStyle=1;orthogonal=1;endArrow=none;startFill=0;labelBackgroundColor=none;strokeColor=#23445D;fontColor=default;" edge="1" parent="1" source="yaPjAHGIPYrJlEL3h2rD-8" target="yaPjAHGIPYrJlEL3h2rD-1">
          <mxGeometry relative="1" as="geometry">
            <Array as="points">
              <mxPoint x="798" y="82" />
              <mxPoint x="595.125" y="154" />
            </Array>
          </mxGeometry>
        </mxCell>
        <mxCell id="yaPjAHGIPYrJlEL3h2rD-8" value="contraseña" style="ellipse;whiteSpace=wrap;html=1;labelBackgroundColor=none;fillColor=#182E3E;strokeColor=#FFFFFF;fontColor=#FFFFFF;" vertex="1" parent="1">
          <mxGeometry x="738" y="5" width="120" height="60" as="geometry" />
        </mxCell>
        <mxCell id="yaPjAHGIPYrJlEL3h2rD-20" style="edgeStyle=orthogonalEdgeStyle;rounded=0;orthogonalLoop=1;jettySize=auto;html=1;exitDx=0;exitDy=0;entryDx=0;entryDy=0;noEdgeStyle=1;orthogonal=1;endArrow=none;startFill=0;labelBackgroundColor=none;strokeColor=#23445D;fontColor=default;" edge="1" parent="1" source="yaPjAHGIPYrJlEL3h2rD-9" target="yaPjAHGIPYrJlEL3h2rD-1">
          <mxGeometry relative="1" as="geometry">
            <Array as="points">
              <mxPoint x="948" y="82" />
              <mxPoint x="608.875" y="156" />
            </Array>
          </mxGeometry>
        </mxCell>
        <mxCell id="yaPjAHGIPYrJlEL3h2rD-9" value="estado" style="ellipse;whiteSpace=wrap;html=1;labelBackgroundColor=none;fillColor=#182E3E;strokeColor=#FFFFFF;fontColor=#FFFFFF;" vertex="1" parent="1">
          <mxGeometry x="888" y="5" width="120" height="60" as="geometry" />
        </mxCell>
        <mxCell id="yaPjAHGIPYrJlEL3h2rD-19" style="edgeStyle=orthogonalEdgeStyle;rounded=0;orthogonalLoop=1;jettySize=auto;html=1;exitDx=0;exitDy=0;entryDx=0;entryDy=0;noEdgeStyle=1;orthogonal=1;endArrow=none;startFill=0;labelBackgroundColor=none;strokeColor=#23445D;fontColor=default;" edge="1" parent="1" source="yaPjAHGIPYrJlEL3h2rD-10" target="yaPjAHGIPYrJlEL3h2rD-1">
          <mxGeometry relative="1" as="geometry">
            <Array as="points">
              <mxPoint x="1098" y="82" />
              <mxPoint x="622.625" y="158" />
            </Array>
          </mxGeometry>
        </mxCell>
        <mxCell id="yaPjAHGIPYrJlEL3h2rD-10" value="horarioAtencion" style="ellipse;whiteSpace=wrap;html=1;labelBackgroundColor=none;fillColor=#182E3E;strokeColor=#FFFFFF;fontColor=#FFFFFF;" vertex="1" parent="1">
          <mxGeometry x="1038" y="5" width="120" height="60" as="geometry" />
        </mxCell>
        <mxCell id="0WnZ42bVohGaUP7WQ3oe-3" style="edgeStyle=orthogonalEdgeStyle;rounded=0;orthogonalLoop=1;jettySize=auto;html=1;exitX=1;exitY=0.5;exitDx=0;exitDy=0;entryX=0;entryY=0.5;entryDx=0;entryDy=0;endArrow=none;startFill=0;labelBackgroundColor=none;strokeColor=#23445D;fontColor=default;" edge="1" parent="1" source="yaPjAHGIPYrJlEL3h2rD-12" target="0WnZ42bVohGaUP7WQ3oe-1">
          <mxGeometry relative="1" as="geometry" />
        </mxCell>
        <mxCell id="yaPjAHGIPYrJlEL3h2rD-12" value="Especialidad" style="rounded=0;whiteSpace=wrap;html=1;labelBackgroundColor=none;fillColor=#182E3E;strokeColor=#FFFFFF;fontColor=#FFFFFF;" vertex="1" parent="1">
          <mxGeometry x="175" y="400" width="120" height="60" as="geometry" />
        </mxCell>
        <mxCell id="yaPjAHGIPYrJlEL3h2rD-24" style="edgeStyle=orthogonalEdgeStyle;rounded=0;orthogonalLoop=1;jettySize=auto;html=1;exitDx=0;exitDy=0;entryDx=0;entryDy=0;noEdgeStyle=1;orthogonal=1;endArrow=none;startFill=0;movable=1;resizable=1;rotatable=1;deletable=1;editable=1;locked=0;connectable=1;labelBackgroundColor=none;strokeColor=#23445D;fontColor=default;" edge="1" parent="1" source="yaPjAHGIPYrJlEL3h2rD-21" target="yaPjAHGIPYrJlEL3h2rD-12">
          <mxGeometry relative="1" as="geometry">
            <Array as="points">
              <mxPoint x="85" y="312" />
              <mxPoint x="198.33333333333326" y="388" />
            </Array>
          </mxGeometry>
        </mxCell>
        <mxCell id="yaPjAHGIPYrJlEL3h2rD-21" value="&lt;span&gt;nombre&lt;/span&gt;" style="ellipse;whiteSpace=wrap;html=1;fontStyle=0;labelBackgroundColor=none;fillColor=#182E3E;strokeColor=#FFFFFF;fontColor=#FFFFFF;" vertex="1" parent="1">
          <mxGeometry x="25" y="220" width="120" height="80" as="geometry" />
        </mxCell>
        <mxCell id="yaPjAHGIPYrJlEL3h2rD-25" style="edgeStyle=orthogonalEdgeStyle;rounded=0;orthogonalLoop=1;jettySize=auto;html=1;exitDx=0;exitDy=0;entryDx=0;entryDy=0;noEdgeStyle=1;orthogonal=1;endArrow=none;startFill=0;movable=1;resizable=1;rotatable=1;deletable=1;editable=1;locked=0;connectable=1;labelBackgroundColor=none;strokeColor=#23445D;fontColor=default;" edge="1" parent="1" source="yaPjAHGIPYrJlEL3h2rD-22" target="yaPjAHGIPYrJlEL3h2rD-12">
          <mxGeometry relative="1" as="geometry">
            <Array as="points">
              <mxPoint x="235" y="312" />
              <mxPoint x="235" y="386" />
            </Array>
          </mxGeometry>
        </mxCell>
        <mxCell id="yaPjAHGIPYrJlEL3h2rD-22" value="descripcion" style="ellipse;whiteSpace=wrap;html=1;labelBackgroundColor=none;fillColor=#182E3E;strokeColor=#FFFFFF;fontColor=#FFFFFF;" vertex="1" parent="1">
          <mxGeometry x="175" y="220" width="120" height="80" as="geometry" />
        </mxCell>
        <mxCell id="yaPjAHGIPYrJlEL3h2rD-26" style="edgeStyle=orthogonalEdgeStyle;rounded=0;orthogonalLoop=1;jettySize=auto;html=1;exitDx=0;exitDy=0;entryDx=0;entryDy=0;noEdgeStyle=1;orthogonal=1;endArrow=none;startFill=0;movable=1;resizable=1;rotatable=1;deletable=1;editable=1;locked=0;connectable=1;labelBackgroundColor=none;strokeColor=#23445D;fontColor=default;" edge="1" parent="1" source="yaPjAHGIPYrJlEL3h2rD-23" target="yaPjAHGIPYrJlEL3h2rD-12">
          <mxGeometry relative="1" as="geometry">
            <Array as="points">
              <mxPoint x="385" y="312" />
              <mxPoint x="271.66666666666674" y="388" />
            </Array>
          </mxGeometry>
        </mxCell>
        <mxCell id="yaPjAHGIPYrJlEL3h2rD-23" value="ID" style="ellipse;whiteSpace=wrap;html=1;fontStyle=4;labelBackgroundColor=none;fillColor=#182E3E;strokeColor=#FFFFFF;fontColor=#FFFFFF;" vertex="1" parent="1">
          <mxGeometry x="325" y="220" width="120" height="80" as="geometry" />
        </mxCell>
        <mxCell id="yaPjAHGIPYrJlEL3h2rD-29" value="Seccion" style="rounded=0;whiteSpace=wrap;html=1;labelBackgroundColor=none;fillColor=#182E3E;strokeColor=#FFFFFF;fontColor=#FFFFFF;" vertex="1" parent="1">
          <mxGeometry x="669.5" y="705" width="120" height="60" as="geometry" />
        </mxCell>
        <mxCell id="yaPjAHGIPYrJlEL3h2rD-33" style="edgeStyle=orthogonalEdgeStyle;rounded=0;orthogonalLoop=1;jettySize=auto;html=1;exitDx=0;exitDy=0;noEdgeStyle=1;orthogonal=1;endArrow=none;startFill=0;entryX=0;entryY=1;entryDx=0;entryDy=0;labelBackgroundColor=none;strokeColor=#23445D;fontColor=default;" edge="1" parent="1" source="yaPjAHGIPYrJlEL3h2rD-30" target="EKdhJ5Bb1jWlvwmiai8i-14">
          <mxGeometry relative="1" as="geometry">
            <mxPoint x="654.5" y="765" as="targetPoint" />
          </mxGeometry>
        </mxCell>
        <mxCell id="yaPjAHGIPYrJlEL3h2rD-34" style="edgeStyle=orthogonalEdgeStyle;rounded=0;orthogonalLoop=1;jettySize=auto;html=1;exitDx=0;exitDy=0;noEdgeStyle=1;orthogonal=1;endArrow=none;startFill=0;entryX=0.5;entryY=1;entryDx=0;entryDy=0;exitX=0.5;exitY=0;labelBackgroundColor=none;strokeColor=#23445D;fontColor=default;" edge="1" parent="1" source="yaPjAHGIPYrJlEL3h2rD-31" target="EKdhJ5Bb1jWlvwmiai8i-14">
          <mxGeometry relative="1" as="geometry">
            <mxPoint x="724.5" y="765" as="targetPoint" />
          </mxGeometry>
        </mxCell>
        <mxCell id="yaPjAHGIPYrJlEL3h2rD-31" value="nombre" style="ellipse;whiteSpace=wrap;html=1;labelBackgroundColor=none;fillColor=#182E3E;strokeColor=#FFFFFF;fontColor=#FFFFFF;" vertex="1" parent="1">
          <mxGeometry x="669.5" y="850" width="120" height="80" as="geometry" />
        </mxCell>
        <mxCell id="yaPjAHGIPYrJlEL3h2rD-35" style="edgeStyle=orthogonalEdgeStyle;rounded=0;orthogonalLoop=1;jettySize=auto;html=1;exitDx=0;exitDy=0;entryDx=0;entryDy=0;noEdgeStyle=1;orthogonal=1;endArrow=none;startFill=0;entryX=1;entryY=1;labelBackgroundColor=none;strokeColor=#23445D;fontColor=default;" edge="1" parent="1" source="yaPjAHGIPYrJlEL3h2rD-32" target="EKdhJ5Bb1jWlvwmiai8i-14">
          <mxGeometry relative="1" as="geometry" />
        </mxCell>
        <mxCell id="yaPjAHGIPYrJlEL3h2rD-32" value="ordenMenu" style="ellipse;whiteSpace=wrap;html=1;labelBackgroundColor=none;fillColor=#182E3E;strokeColor=#FFFFFF;fontColor=#FFFFFF;" vertex="1" parent="1">
          <mxGeometry x="824.5" y="840" width="120" height="80" as="geometry" />
        </mxCell>
        <mxCell id="yaPjAHGIPYrJlEL3h2rD-48" value="valorOpcion" style="rounded=0;whiteSpace=wrap;html=1;labelBackgroundColor=none;fillColor=#182E3E;strokeColor=#FFFFFF;fontColor=#FFFFFF;" vertex="1" parent="1">
          <mxGeometry x="2188" y="470" width="120" height="60" as="geometry" />
        </mxCell>
        <mxCell id="yaPjAHGIPYrJlEL3h2rD-52" style="edgeStyle=orthogonalEdgeStyle;rounded=0;orthogonalLoop=1;jettySize=auto;html=1;exitDx=0;exitDy=0;entryDx=0;entryDy=0;noEdgeStyle=1;orthogonal=1;endArrow=none;startFill=0;labelBackgroundColor=none;strokeColor=#23445D;fontColor=default;" edge="1" parent="1" source="yaPjAHGIPYrJlEL3h2rD-49" target="yaPjAHGIPYrJlEL3h2rD-48">
          <mxGeometry relative="1" as="geometry">
            <Array as="points">
              <mxPoint x="2098" y="372" />
              <mxPoint x="2211.3333333333335" y="448" />
            </Array>
          </mxGeometry>
        </mxCell>
        <mxCell id="yaPjAHGIPYrJlEL3h2rD-49" value="&lt;u&gt;numero&lt;/u&gt;" style="ellipse;whiteSpace=wrap;html=1;labelBackgroundColor=none;fillColor=#182E3E;strokeColor=#FFFFFF;fontColor=#FFFFFF;" vertex="1" parent="1">
          <mxGeometry x="2038" y="280" width="120" height="80" as="geometry" />
        </mxCell>
        <mxCell id="yaPjAHGIPYrJlEL3h2rD-54" style="edgeStyle=orthogonalEdgeStyle;rounded=0;orthogonalLoop=1;jettySize=auto;html=1;exitDx=0;exitDy=0;entryDx=0;entryDy=0;noEdgeStyle=1;orthogonal=1;endArrow=none;startFill=0;labelBackgroundColor=none;strokeColor=#23445D;fontColor=default;" edge="1" parent="1" source="yaPjAHGIPYrJlEL3h2rD-50" target="yaPjAHGIPYrJlEL3h2rD-48">
          <mxGeometry relative="1" as="geometry">
            <Array as="points">
              <mxPoint x="2248" y="372" />
              <mxPoint x="2248" y="446" />
            </Array>
          </mxGeometry>
        </mxCell>
        <mxCell id="yaPjAHGIPYrJlEL3h2rD-50" value="costoAdicional" style="ellipse;whiteSpace=wrap;html=1;labelBackgroundColor=none;fillColor=#182E3E;strokeColor=#FFFFFF;fontColor=#FFFFFF;" vertex="1" parent="1">
          <mxGeometry x="2188" y="280" width="120" height="80" as="geometry" />
        </mxCell>
        <mxCell id="yaPjAHGIPYrJlEL3h2rD-53" style="edgeStyle=orthogonalEdgeStyle;rounded=0;orthogonalLoop=1;jettySize=auto;html=1;exitDx=0;exitDy=0;entryDx=0;entryDy=0;noEdgeStyle=1;orthogonal=1;endArrow=none;startFill=0;labelBackgroundColor=none;strokeColor=#23445D;fontColor=default;" edge="1" parent="1" source="yaPjAHGIPYrJlEL3h2rD-51" target="yaPjAHGIPYrJlEL3h2rD-48">
          <mxGeometry relative="1" as="geometry">
            <Array as="points">
              <mxPoint x="2398" y="372" />
              <mxPoint x="2284.6666666666665" y="448" />
            </Array>
          </mxGeometry>
        </mxCell>
        <mxCell id="yaPjAHGIPYrJlEL3h2rD-51" value="nombre" style="ellipse;whiteSpace=wrap;html=1;labelBackgroundColor=none;fillColor=#182E3E;strokeColor=#FFFFFF;fontColor=#FFFFFF;" vertex="1" parent="1">
          <mxGeometry x="2338" y="280" width="120" height="80" as="geometry" />
        </mxCell>
        <mxCell id="MhQRXEk31BVcxS3c4wM8-12" style="edgeStyle=orthogonalEdgeStyle;rounded=0;orthogonalLoop=1;jettySize=auto;html=1;exitX=0.75;exitY=1;exitDx=0;exitDy=0;entryX=0;entryY=0.5;entryDx=0;entryDy=0;endArrow=none;startFill=0;labelBackgroundColor=none;strokeColor=#23445D;fontColor=default;" edge="1" parent="1" source="yaPjAHGIPYrJlEL3h2rD-55" target="MhQRXEk31BVcxS3c4wM8-6">
          <mxGeometry relative="1" as="geometry" />
        </mxCell>
        <mxCell id="yaPjAHGIPYrJlEL3h2rD-55" value="Usuario" style="rounded=0;whiteSpace=wrap;html=1;labelBackgroundColor=none;fillColor=#182E3E;strokeColor=#FFFFFF;fontColor=#FFFFFF;" vertex="1" parent="1">
          <mxGeometry x="2770" y="220" width="120" height="60" as="geometry" />
        </mxCell>
        <mxCell id="yaPjAHGIPYrJlEL3h2rD-66" style="edgeStyle=orthogonalEdgeStyle;rounded=0;orthogonalLoop=1;jettySize=auto;html=1;exitDx=0;exitDy=0;entryDx=0;entryDy=0;noEdgeStyle=1;orthogonal=1;endArrow=none;startFill=0;labelBackgroundColor=none;strokeColor=#23445D;fontColor=default;" edge="1" parent="1" source="yaPjAHGIPYrJlEL3h2rD-56" target="yaPjAHGIPYrJlEL3h2rD-55">
          <mxGeometry relative="1" as="geometry">
            <Array as="points">
              <mxPoint x="2230" y="30" />
              <mxPoint x="2781.1111111111113" y="208" />
            </Array>
          </mxGeometry>
        </mxCell>
        <mxCell id="yaPjAHGIPYrJlEL3h2rD-56" value="nombre" style="ellipse;whiteSpace=wrap;html=1;labelBackgroundColor=none;fillColor=#182E3E;strokeColor=#FFFFFF;fontColor=#FFFFFF;" vertex="1" parent="1">
          <mxGeometry x="2170" y="-90" width="120" height="80" as="geometry" />
        </mxCell>
        <mxCell id="yaPjAHGIPYrJlEL3h2rD-67" style="edgeStyle=orthogonalEdgeStyle;rounded=0;orthogonalLoop=1;jettySize=auto;html=1;exitDx=0;exitDy=0;entryDx=0;entryDy=0;noEdgeStyle=1;orthogonal=1;endArrow=none;startFill=0;labelBackgroundColor=none;strokeColor=#23445D;fontColor=default;" edge="1" parent="1" source="yaPjAHGIPYrJlEL3h2rD-57" target="yaPjAHGIPYrJlEL3h2rD-55">
          <mxGeometry relative="1" as="geometry">
            <Array as="points">
              <mxPoint x="2380" y="30" />
              <mxPoint x="2793.3333333333335" y="206" />
            </Array>
          </mxGeometry>
        </mxCell>
        <mxCell id="yaPjAHGIPYrJlEL3h2rD-57" value="&lt;u&gt;numDocumento&lt;/u&gt;" style="ellipse;whiteSpace=wrap;html=1;labelBackgroundColor=none;fillColor=#182E3E;strokeColor=#FFFFFF;fontColor=#FFFFFF;" vertex="1" parent="1">
          <mxGeometry x="2320" y="-90" width="120" height="80" as="geometry" />
        </mxCell>
        <mxCell id="yaPjAHGIPYrJlEL3h2rD-69" style="edgeStyle=orthogonalEdgeStyle;rounded=0;orthogonalLoop=1;jettySize=auto;html=1;exitDx=0;exitDy=0;entryDx=0;entryDy=0;noEdgeStyle=1;orthogonal=1;endArrow=none;startFill=0;labelBackgroundColor=none;strokeColor=#23445D;fontColor=default;" edge="1" parent="1" source="yaPjAHGIPYrJlEL3h2rD-58" target="yaPjAHGIPYrJlEL3h2rD-55">
          <mxGeometry relative="1" as="geometry">
            <Array as="points">
              <mxPoint x="2530" y="30" />
              <mxPoint x="2805.5555555555557" y="204" />
            </Array>
          </mxGeometry>
        </mxCell>
        <mxCell id="yaPjAHGIPYrJlEL3h2rD-58" value="correo" style="ellipse;whiteSpace=wrap;html=1;labelBackgroundColor=none;fillColor=#182E3E;strokeColor=#FFFFFF;fontColor=#FFFFFF;" vertex="1" parent="1">
          <mxGeometry x="2470" y="-90" width="120" height="80" as="geometry" />
        </mxCell>
        <mxCell id="yaPjAHGIPYrJlEL3h2rD-71" style="edgeStyle=orthogonalEdgeStyle;rounded=0;orthogonalLoop=1;jettySize=auto;html=1;exitDx=0;exitDy=0;entryDx=0;entryDy=0;noEdgeStyle=1;orthogonal=1;endArrow=none;startFill=0;labelBackgroundColor=none;strokeColor=#23445D;fontColor=default;" edge="1" parent="1" source="yaPjAHGIPYrJlEL3h2rD-59" target="yaPjAHGIPYrJlEL3h2rD-55">
          <mxGeometry relative="1" as="geometry">
            <Array as="points">
              <mxPoint x="2680" y="30" />
              <mxPoint x="2817.777777777778" y="202" />
            </Array>
          </mxGeometry>
        </mxCell>
        <mxCell id="yaPjAHGIPYrJlEL3h2rD-59" value="contraseña" style="ellipse;whiteSpace=wrap;html=1;labelBackgroundColor=none;fillColor=#182E3E;strokeColor=#FFFFFF;fontColor=#FFFFFF;" vertex="1" parent="1">
          <mxGeometry x="2620" y="-90" width="120" height="80" as="geometry" />
        </mxCell>
        <mxCell id="yaPjAHGIPYrJlEL3h2rD-70" style="edgeStyle=orthogonalEdgeStyle;rounded=0;orthogonalLoop=1;jettySize=auto;html=1;exitDx=0;exitDy=0;entryDx=0;entryDy=0;noEdgeStyle=1;orthogonal=1;endArrow=none;startFill=0;labelBackgroundColor=none;strokeColor=#23445D;fontColor=default;" edge="1" parent="1" source="yaPjAHGIPYrJlEL3h2rD-60" target="yaPjAHGIPYrJlEL3h2rD-55">
          <mxGeometry relative="1" as="geometry">
            <Array as="points">
              <mxPoint x="2830" y="132" />
              <mxPoint x="2830" y="200" />
            </Array>
          </mxGeometry>
        </mxCell>
        <mxCell id="yaPjAHGIPYrJlEL3h2rD-60" value="tipoDocumento" style="ellipse;whiteSpace=wrap;html=1;labelBackgroundColor=none;fillColor=#182E3E;strokeColor=#FFFFFF;fontColor=#FFFFFF;" vertex="1" parent="1">
          <mxGeometry x="2770" y="-90" width="120" height="80" as="geometry" />
        </mxCell>
        <mxCell id="yaPjAHGIPYrJlEL3h2rD-68" style="edgeStyle=orthogonalEdgeStyle;rounded=0;orthogonalLoop=1;jettySize=auto;html=1;exitDx=0;exitDy=0;entryDx=0;entryDy=0;noEdgeStyle=1;orthogonal=1;endArrow=none;startFill=0;labelBackgroundColor=none;strokeColor=#23445D;fontColor=default;" edge="1" parent="1" source="yaPjAHGIPYrJlEL3h2rD-61" target="yaPjAHGIPYrJlEL3h2rD-55">
          <mxGeometry relative="1" as="geometry">
            <Array as="points">
              <mxPoint x="2980" y="30" />
              <mxPoint x="2842.222222222222" y="202" />
            </Array>
          </mxGeometry>
        </mxCell>
        <mxCell id="yaPjAHGIPYrJlEL3h2rD-61" value="apellido" style="ellipse;whiteSpace=wrap;html=1;labelBackgroundColor=none;fillColor=#182E3E;strokeColor=#FFFFFF;fontColor=#FFFFFF;" vertex="1" parent="1">
          <mxGeometry x="2920" y="-90" width="120" height="80" as="geometry" />
        </mxCell>
        <mxCell id="yaPjAHGIPYrJlEL3h2rD-72" style="edgeStyle=orthogonalEdgeStyle;rounded=0;orthogonalLoop=1;jettySize=auto;html=1;exitDx=0;exitDy=0;entryDx=0;entryDy=0;endArrow=none;startFill=0;noEdgeStyle=1;orthogonal=1;labelBackgroundColor=none;strokeColor=#23445D;fontColor=default;" edge="1" parent="1" source="yaPjAHGIPYrJlEL3h2rD-62" target="yaPjAHGIPYrJlEL3h2rD-55">
          <mxGeometry relative="1" as="geometry">
            <Array as="points">
              <mxPoint x="3130" y="30" />
              <mxPoint x="2854.4444444444443" y="204" />
            </Array>
          </mxGeometry>
        </mxCell>
        <mxCell id="yaPjAHGIPYrJlEL3h2rD-62" value="fechaNacimiento" style="ellipse;whiteSpace=wrap;html=1;labelBackgroundColor=none;fillColor=#182E3E;strokeColor=#FFFFFF;fontColor=#FFFFFF;" vertex="1" parent="1">
          <mxGeometry x="3070" y="-90" width="120" height="80" as="geometry" />
        </mxCell>
        <mxCell id="yaPjAHGIPYrJlEL3h2rD-73" style="edgeStyle=orthogonalEdgeStyle;rounded=0;orthogonalLoop=1;jettySize=auto;html=1;exitDx=0;exitDy=0;entryDx=0;entryDy=0;endArrow=none;startFill=0;noEdgeStyle=1;orthogonal=1;labelBackgroundColor=none;strokeColor=#23445D;fontColor=default;" edge="1" parent="1" source="yaPjAHGIPYrJlEL3h2rD-63" target="yaPjAHGIPYrJlEL3h2rD-55">
          <mxGeometry relative="1" as="geometry">
            <Array as="points">
              <mxPoint x="3280" y="30" />
              <mxPoint x="2866.6666666666665" y="206" />
            </Array>
          </mxGeometry>
        </mxCell>
        <mxCell id="yaPjAHGIPYrJlEL3h2rD-63" value="" style="ellipse;whiteSpace=wrap;html=1;labelBackgroundColor=none;fillColor=#182E3E;strokeColor=#FFFFFF;fontColor=#FFFFFF;" vertex="1" parent="1">
          <mxGeometry x="3220" y="-90" width="120" height="80" as="geometry" />
        </mxCell>
        <mxCell id="yaPjAHGIPYrJlEL3h2rD-74" style="edgeStyle=orthogonalEdgeStyle;rounded=0;orthogonalLoop=1;jettySize=auto;html=1;exitDx=0;exitDy=0;entryDx=0;entryDy=0;endArrow=none;startFill=0;noEdgeStyle=1;orthogonal=1;labelBackgroundColor=none;strokeColor=#23445D;fontColor=default;" edge="1" parent="1" source="yaPjAHGIPYrJlEL3h2rD-64" target="yaPjAHGIPYrJlEL3h2rD-55">
          <mxGeometry relative="1" as="geometry">
            <Array as="points">
              <mxPoint x="3430" y="30" />
              <mxPoint x="2878.8888888888887" y="208" />
            </Array>
          </mxGeometry>
        </mxCell>
        <mxCell id="yaPjAHGIPYrJlEL3h2rD-64" value="fechaRegistro" style="ellipse;whiteSpace=wrap;html=1;labelBackgroundColor=none;fillColor=#182E3E;strokeColor=#FFFFFF;fontColor=#FFFFFF;" vertex="1" parent="1">
          <mxGeometry x="3370" y="-90" width="120" height="80" as="geometry" />
        </mxCell>
        <mxCell id="yaPjAHGIPYrJlEL3h2rD-65" value="telefono" style="ellipse;whiteSpace=wrap;html=1;labelBackgroundColor=none;fillColor=#182E3E;strokeColor=#FFFFFF;fontColor=#FFFFFF;" vertex="1" parent="1">
          <mxGeometry x="3225" y="-85" width="110" height="70" as="geometry" />
        </mxCell>
        <mxCell id="yaPjAHGIPYrJlEL3h2rD-75" value="Direccion" style="rounded=0;whiteSpace=wrap;html=1;labelBackgroundColor=none;fillColor=#182E3E;strokeColor=#FFFFFF;fontColor=#FFFFFF;" vertex="1" parent="1">
          <mxGeometry x="3710" y="507.5" width="120" height="60" as="geometry" />
        </mxCell>
        <mxCell id="yaPjAHGIPYrJlEL3h2rD-81" style="edgeStyle=orthogonalEdgeStyle;rounded=0;orthogonalLoop=1;jettySize=auto;html=1;exitDx=0;exitDy=0;entryDx=0;entryDy=0;noEdgeStyle=1;orthogonal=1;endArrow=none;startFill=0;labelBackgroundColor=none;strokeColor=#23445D;fontColor=default;" edge="1" parent="1" source="yaPjAHGIPYrJlEL3h2rD-76" target="yaPjAHGIPYrJlEL3h2rD-75">
          <mxGeometry relative="1" as="geometry">
            <Array as="points">
              <mxPoint x="3470" y="412" />
              <mxPoint x="3726" y="488" />
            </Array>
          </mxGeometry>
        </mxCell>
        <mxCell id="yaPjAHGIPYrJlEL3h2rD-76" value="alias" style="ellipse;whiteSpace=wrap;html=1;labelBackgroundColor=none;fillColor=#182E3E;strokeColor=#FFFFFF;fontColor=#FFFFFF;" vertex="1" parent="1">
          <mxGeometry x="3410" y="320" width="120" height="80" as="geometry" />
        </mxCell>
        <mxCell id="yaPjAHGIPYrJlEL3h2rD-82" style="edgeStyle=orthogonalEdgeStyle;rounded=0;orthogonalLoop=1;jettySize=auto;html=1;exitDx=0;exitDy=0;entryDx=0;entryDy=0;noEdgeStyle=1;orthogonal=1;endArrow=none;startFill=0;labelBackgroundColor=none;strokeColor=#23445D;fontColor=default;" edge="1" parent="1" source="yaPjAHGIPYrJlEL3h2rD-77" target="yaPjAHGIPYrJlEL3h2rD-75">
          <mxGeometry relative="1" as="geometry">
            <Array as="points">
              <mxPoint x="3620" y="412" />
              <mxPoint x="3748" y="486" />
            </Array>
          </mxGeometry>
        </mxCell>
        <mxCell id="yaPjAHGIPYrJlEL3h2rD-77" value="calle" style="ellipse;whiteSpace=wrap;html=1;labelBackgroundColor=none;fillColor=#182E3E;strokeColor=#FFFFFF;fontColor=#FFFFFF;" vertex="1" parent="1">
          <mxGeometry x="3560" y="320" width="120" height="80" as="geometry" />
        </mxCell>
        <mxCell id="yaPjAHGIPYrJlEL3h2rD-83" style="edgeStyle=orthogonalEdgeStyle;rounded=0;orthogonalLoop=1;jettySize=auto;html=1;exitDx=0;exitDy=0;entryDx=0;entryDy=0;noEdgeStyle=1;orthogonal=1;endArrow=none;startFill=0;labelBackgroundColor=none;strokeColor=#23445D;fontColor=default;" edge="1" parent="1" source="yaPjAHGIPYrJlEL3h2rD-78" target="yaPjAHGIPYrJlEL3h2rD-75">
          <mxGeometry relative="1" as="geometry">
            <Array as="points">
              <mxPoint x="3770" y="412" />
              <mxPoint x="3770" y="484" />
            </Array>
          </mxGeometry>
        </mxCell>
        <mxCell id="yaPjAHGIPYrJlEL3h2rD-78" value="municipio" style="ellipse;whiteSpace=wrap;html=1;labelBackgroundColor=none;fillColor=#182E3E;strokeColor=#FFFFFF;fontColor=#FFFFFF;" vertex="1" parent="1">
          <mxGeometry x="3710" y="320" width="120" height="80" as="geometry" />
        </mxCell>
        <mxCell id="yaPjAHGIPYrJlEL3h2rD-84" style="edgeStyle=orthogonalEdgeStyle;rounded=0;orthogonalLoop=1;jettySize=auto;html=1;exitDx=0;exitDy=0;entryDx=0;entryDy=0;noEdgeStyle=1;orthogonal=1;endArrow=none;startFill=0;labelBackgroundColor=none;strokeColor=#23445D;fontColor=default;" edge="1" parent="1" source="yaPjAHGIPYrJlEL3h2rD-79" target="yaPjAHGIPYrJlEL3h2rD-75">
          <mxGeometry relative="1" as="geometry">
            <Array as="points">
              <mxPoint x="3920" y="412" />
              <mxPoint x="3792" y="486" />
            </Array>
          </mxGeometry>
        </mxCell>
        <mxCell id="yaPjAHGIPYrJlEL3h2rD-79" value="&lt;u&gt;codigoPostal&lt;/u&gt;" style="ellipse;whiteSpace=wrap;html=1;labelBackgroundColor=none;fillColor=#182E3E;strokeColor=#FFFFFF;fontColor=#FFFFFF;" vertex="1" parent="1">
          <mxGeometry x="3860" y="320" width="120" height="80" as="geometry" />
        </mxCell>
        <mxCell id="yaPjAHGIPYrJlEL3h2rD-85" style="edgeStyle=orthogonalEdgeStyle;rounded=0;orthogonalLoop=1;jettySize=auto;html=1;exitDx=0;exitDy=0;entryDx=0;entryDy=0;noEdgeStyle=1;orthogonal=1;endArrow=none;startFill=0;exitX=0.5;exitY=1;labelBackgroundColor=none;strokeColor=#23445D;fontColor=default;" edge="1" parent="1" source="yaPjAHGIPYrJlEL3h2rD-80" target="yaPjAHGIPYrJlEL3h2rD-75">
          <mxGeometry relative="1" as="geometry">
            <Array as="points">
              <mxPoint x="4070" y="412" />
              <mxPoint x="3814" y="488" />
            </Array>
            <mxPoint x="4070" y="400" as="sourcePoint" />
          </mxGeometry>
        </mxCell>
        <mxCell id="yaPjAHGIPYrJlEL3h2rD-80" value="edificio" style="ellipse;whiteSpace=wrap;html=1;labelBackgroundColor=none;fillColor=#182E3E;strokeColor=#FFFFFF;fontColor=#FFFFFF;" vertex="1" parent="1">
          <mxGeometry x="4010" y="320" width="120" height="80" as="geometry" />
        </mxCell>
        <mxCell id="MhQRXEk31BVcxS3c4wM8-17" style="edgeStyle=orthogonalEdgeStyle;rounded=0;orthogonalLoop=1;jettySize=auto;html=1;exitX=0.5;exitY=1;exitDx=0;exitDy=0;entryX=0.5;entryY=1;entryDx=0;entryDy=0;endArrow=none;startFill=0;labelBackgroundColor=none;strokeColor=#23445D;fontColor=default;" edge="1" parent="1" source="MhQRXEk31BVcxS3c4wM8-18" target="EKdhJ5Bb1jWlvwmiai8i-15">
          <mxGeometry relative="1" as="geometry">
            <Array as="points">
              <mxPoint x="2320" y="1190" />
              <mxPoint x="2220" y="1190" />
              <mxPoint x="2220" y="1330" />
              <mxPoint x="2490" y="1330" />
            </Array>
          </mxGeometry>
        </mxCell>
        <mxCell id="yaPjAHGIPYrJlEL3h2rD-87" value="Pedido" style="rounded=0;whiteSpace=wrap;html=1;labelBackgroundColor=none;fillColor=#182E3E;strokeColor=#FFFFFF;fontColor=#FFFFFF;" vertex="1" parent="1">
          <mxGeometry x="2228" y="860" width="120" height="60" as="geometry" />
        </mxCell>
        <mxCell id="yaPjAHGIPYrJlEL3h2rD-94" style="edgeStyle=orthogonalEdgeStyle;rounded=0;orthogonalLoop=1;jettySize=auto;html=1;exitDx=0;exitDy=0;noEdgeStyle=1;orthogonal=1;endArrow=none;startFill=0;exitX=0.5;exitY=1;entryX=0.5;entryY=1;entryDx=0;entryDy=0;labelBackgroundColor=none;strokeColor=#23445D;fontColor=default;" edge="1" parent="1" source="yaPjAHGIPYrJlEL3h2rD-89" target="yaPjAHGIPYrJlEL3h2rD-87">
          <mxGeometry relative="1" as="geometry">
            <mxPoint x="2288" y="860" as="targetPoint" />
          </mxGeometry>
        </mxCell>
        <mxCell id="yaPjAHGIPYrJlEL3h2rD-89" value="precio" style="ellipse;whiteSpace=wrap;html=1;labelBackgroundColor=none;fillColor=#182E3E;strokeColor=#FFFFFF;fontColor=#FFFFFF;" vertex="1" parent="1">
          <mxGeometry x="2130" y="1020" width="120" height="80" as="geometry" />
        </mxCell>
        <mxCell id="yaPjAHGIPYrJlEL3h2rD-112" value="EstadoPedido" style="rounded=0;whiteSpace=wrap;html=1;labelBackgroundColor=none;fillColor=#182E3E;strokeColor=#FFFFFF;fontColor=#FFFFFF;" vertex="1" parent="1">
          <mxGeometry x="2430" y="1240" width="120" height="60" as="geometry" />
        </mxCell>
        <mxCell id="yaPjAHGIPYrJlEL3h2rD-113" value="nombre" style="ellipse;whiteSpace=wrap;html=1;labelBackgroundColor=none;fillColor=#182E3E;strokeColor=#FFFFFF;fontColor=#FFFFFF;" vertex="1" parent="1">
          <mxGeometry x="2630" y="1100" width="120" height="80" as="geometry" />
        </mxCell>
        <mxCell id="yaPjAHGIPYrJlEL3h2rD-114" value="descripcion" style="ellipse;whiteSpace=wrap;html=1;labelBackgroundColor=none;fillColor=#182E3E;strokeColor=#FFFFFF;fontColor=#FFFFFF;" vertex="1" parent="1">
          <mxGeometry x="2630" y="1230" width="120" height="80" as="geometry" />
        </mxCell>
        <mxCell id="yaPjAHGIPYrJlEL3h2rD-115" value="tiempoPromedio" style="ellipse;whiteSpace=wrap;html=1;labelBackgroundColor=none;fillColor=#182E3E;strokeColor=#FFFFFF;fontColor=#FFFFFF;" vertex="1" parent="1">
          <mxGeometry x="2630" y="1360" width="120" height="80" as="geometry" />
        </mxCell>
        <mxCell id="yaPjAHGIPYrJlEL3h2rD-119" value="Repartidor" style="rounded=0;whiteSpace=wrap;html=1;labelBackgroundColor=none;fillColor=#182E3E;strokeColor=#FFFFFF;fontColor=#FFFFFF;" vertex="1" parent="1">
          <mxGeometry x="2620" y="350" width="120" height="60" as="geometry" />
        </mxCell>
        <mxCell id="yaPjAHGIPYrJlEL3h2rD-123" style="edgeStyle=orthogonalEdgeStyle;rounded=0;orthogonalLoop=1;jettySize=auto;html=1;exitDx=0;exitDy=0;entryDx=0;entryDy=0;noEdgeStyle=1;orthogonal=1;endArrow=none;startFill=0;entryX=0;entryY=1;exitX=1;exitY=0;labelBackgroundColor=none;strokeColor=#23445D;fontColor=default;" edge="1" parent="1" source="yaPjAHGIPYrJlEL3h2rD-120" target="yaPjAHGIPYrJlEL3h2rD-119">
          <mxGeometry relative="1" as="geometry">
            <Array as="points" />
          </mxGeometry>
        </mxCell>
        <mxCell id="yaPjAHGIPYrJlEL3h2rD-120" value="&lt;u&gt;vehiculo&lt;/u&gt;" style="ellipse;whiteSpace=wrap;html=1;labelBackgroundColor=none;fillColor=#182E3E;strokeColor=#FFFFFF;fontColor=#FFFFFF;" vertex="1" parent="1">
          <mxGeometry x="2455" y="439" width="120" height="80" as="geometry" />
        </mxCell>
        <mxCell id="yaPjAHGIPYrJlEL3h2rD-124" style="edgeStyle=orthogonalEdgeStyle;rounded=0;orthogonalLoop=1;jettySize=auto;html=1;exitDx=0;exitDy=0;entryDx=0;entryDy=0;noEdgeStyle=1;orthogonal=1;endArrow=none;startFill=0;entryX=0.5;entryY=1;exitX=0.5;exitY=1;labelBackgroundColor=none;strokeColor=#23445D;fontColor=default;" edge="1" parent="1" source="yaPjAHGIPYrJlEL3h2rD-121" target="yaPjAHGIPYrJlEL3h2rD-119">
          <mxGeometry relative="1" as="geometry">
            <Array as="points" />
          </mxGeometry>
        </mxCell>
        <mxCell id="yaPjAHGIPYrJlEL3h2rD-121" value="estado" style="ellipse;whiteSpace=wrap;html=1;labelBackgroundColor=none;fillColor=#182E3E;strokeColor=#FFFFFF;fontColor=#FFFFFF;" vertex="1" parent="1">
          <mxGeometry x="2615" y="480" width="120" height="80" as="geometry" />
        </mxCell>
        <mxCell id="yaPjAHGIPYrJlEL3h2rD-122" value="tiempoEntrega" style="ellipse;whiteSpace=wrap;html=1;labelBackgroundColor=none;fillColor=#182E3E;strokeColor=#FFFFFF;fontColor=#FFFFFF;" vertex="1" parent="1">
          <mxGeometry x="2785" y="439" width="120" height="80" as="geometry" />
        </mxCell>
        <mxCell id="yaPjAHGIPYrJlEL3h2rD-125" style="edgeStyle=orthogonalEdgeStyle;rounded=0;orthogonalLoop=1;jettySize=auto;html=1;exitDx=0;exitDy=0;entryDx=0;entryDy=0;entryPerimeter=0;noEdgeStyle=1;orthogonal=1;endArrow=none;startFill=0;labelBackgroundColor=none;strokeColor=#23445D;fontColor=default;" edge="1" parent="1" source="yaPjAHGIPYrJlEL3h2rD-122" target="yaPjAHGIPYrJlEL3h2rD-119">
          <mxGeometry relative="1" as="geometry">
            <Array as="points" />
          </mxGeometry>
        </mxCell>
        <mxCell id="yaPjAHGIPYrJlEL3h2rD-129" value="puntuacion" style="ellipse;whiteSpace=wrap;html=1;labelBackgroundColor=none;fillColor=#182E3E;strokeColor=#FFFFFF;fontColor=#FFFFFF;" vertex="1" parent="1">
          <mxGeometry x="1930" y="-129" width="120" height="80" as="geometry" />
        </mxCell>
        <mxCell id="yaPjAHGIPYrJlEL3h2rD-130" value="comentario" style="ellipse;whiteSpace=wrap;html=1;labelBackgroundColor=none;fillColor=#182E3E;strokeColor=#FFFFFF;fontColor=#FFFFFF;" vertex="1" parent="1">
          <mxGeometry x="1930" y="-29" width="120" height="80" as="geometry" />
        </mxCell>
        <mxCell id="yaPjAHGIPYrJlEL3h2rD-131" value="&lt;u&gt;fecha&lt;/u&gt;" style="ellipse;whiteSpace=wrap;html=1;labelBackgroundColor=none;fillColor=#182E3E;strokeColor=#FFFFFF;fontColor=#FFFFFF;" vertex="1" parent="1">
          <mxGeometry x="1930" y="71" width="120" height="80" as="geometry" />
        </mxCell>
        <mxCell id="MhQRXEk31BVcxS3c4wM8-8" style="edgeStyle=orthogonalEdgeStyle;rounded=0;orthogonalLoop=1;jettySize=auto;html=1;exitX=0.5;exitY=0;exitDx=0;exitDy=0;entryX=0.5;entryY=1;entryDx=0;entryDy=0;endArrow=none;startFill=0;labelBackgroundColor=none;strokeColor=#23445D;fontColor=default;" edge="1" parent="1" source="MhQRXEk31BVcxS3c4wM8-14" target="MhQRXEk31BVcxS3c4wM8-6">
          <mxGeometry relative="1" as="geometry">
            <mxPoint x="3710" y="919.9999999999998" as="sourcePoint" />
            <Array as="points">
              <mxPoint x="2920" y="915" />
              <mxPoint x="2920" y="760" />
              <mxPoint x="2990" y="760" />
              <mxPoint x="2990" y="625" />
              <mxPoint x="3040" y="625" />
            </Array>
          </mxGeometry>
        </mxCell>
        <mxCell id="yaPjAHGIPYrJlEL3h2rD-150" style="edgeStyle=orthogonalEdgeStyle;rounded=0;orthogonalLoop=1;jettySize=auto;html=1;exitDx=0;exitDy=0;entryDx=0;entryDy=0;endArrow=none;startFill=0;noEdgeStyle=1;orthogonal=1;labelBackgroundColor=none;strokeColor=#23445D;fontColor=default;" edge="1" parent="1" source="yaPjAHGIPYrJlEL3h2rD-143">
          <mxGeometry relative="1" as="geometry">
            <mxPoint x="2874.166666666666" y="954.9999999999998" as="targetPoint" />
          </mxGeometry>
        </mxCell>
        <mxCell id="yaPjAHGIPYrJlEL3h2rD-143" value="&lt;u&gt;numero&lt;/u&gt;" style="ellipse;whiteSpace=wrap;html=1;labelBackgroundColor=none;fillColor=#182E3E;strokeColor=#FFFFFF;fontColor=#FFFFFF;" vertex="1" parent="1">
          <mxGeometry x="2485" y="775" width="120" height="80" as="geometry" />
        </mxCell>
        <mxCell id="yaPjAHGIPYrJlEL3h2rD-151" style="edgeStyle=orthogonalEdgeStyle;rounded=0;orthogonalLoop=1;jettySize=auto;html=1;exitDx=0;exitDy=0;entryDx=0;entryDy=0;noEdgeStyle=1;orthogonal=1;endArrow=none;startFill=0;entryX=0;entryY=0;labelBackgroundColor=none;strokeColor=#23445D;fontColor=default;" edge="1" parent="1" source="yaPjAHGIPYrJlEL3h2rD-144" target="MhQRXEk31BVcxS3c4wM8-14">
          <mxGeometry relative="1" as="geometry">
            <mxPoint x="2892.5" y="954.9999999999998" as="targetPoint" />
          </mxGeometry>
        </mxCell>
        <mxCell id="yaPjAHGIPYrJlEL3h2rD-144" value="fecha" style="ellipse;whiteSpace=wrap;html=1;labelBackgroundColor=none;fillColor=#182E3E;strokeColor=#FFFFFF;fontColor=#FFFFFF;" vertex="1" parent="1">
          <mxGeometry x="2635" y="775" width="120" height="80" as="geometry" />
        </mxCell>
        <mxCell id="yaPjAHGIPYrJlEL3h2rD-152" style="edgeStyle=orthogonalEdgeStyle;rounded=0;orthogonalLoop=1;jettySize=auto;html=1;exitDx=0;exitDy=0;entryDx=0;entryDy=0;noEdgeStyle=1;orthogonal=1;endArrow=none;startFill=0;labelBackgroundColor=none;strokeColor=#23445D;fontColor=default;" edge="1" parent="1" source="yaPjAHGIPYrJlEL3h2rD-145">
          <mxGeometry relative="1" as="geometry">
            <mxPoint x="2910.833333333334" y="954.9999999999998" as="targetPoint" />
          </mxGeometry>
        </mxCell>
        <mxCell id="yaPjAHGIPYrJlEL3h2rD-145" value="montoTotal" style="ellipse;whiteSpace=wrap;html=1;labelBackgroundColor=none;fillColor=#182E3E;strokeColor=#FFFFFF;fontColor=#FFFFFF;" vertex="1" parent="1">
          <mxGeometry x="2785" y="775" width="120" height="80" as="geometry" />
        </mxCell>
        <mxCell id="yaPjAHGIPYrJlEL3h2rD-154" style="edgeStyle=orthogonalEdgeStyle;rounded=0;orthogonalLoop=1;jettySize=auto;html=1;exitDx=0;exitDy=0;entryDx=0;entryDy=0;noEdgeStyle=1;orthogonal=1;endArrow=none;startFill=0;entryX=0.639;entryY=0.179;entryPerimeter=0;labelBackgroundColor=none;strokeColor=#23445D;fontColor=default;" edge="1" parent="1" source="yaPjAHGIPYrJlEL3h2rD-146" target="MhQRXEk31BVcxS3c4wM8-14">
          <mxGeometry relative="1" as="geometry">
            <mxPoint x="2929.166666666668" y="954.9999999999998" as="targetPoint" />
          </mxGeometry>
        </mxCell>
        <mxCell id="yaPjAHGIPYrJlEL3h2rD-146" value="IVA" style="ellipse;whiteSpace=wrap;html=1;labelBackgroundColor=none;fillColor=#182E3E;strokeColor=#FFFFFF;fontColor=#FFFFFF;" vertex="1" parent="1">
          <mxGeometry x="2935" y="775" width="120" height="80" as="geometry" />
        </mxCell>
        <mxCell id="yaPjAHGIPYrJlEL3h2rD-153" style="edgeStyle=orthogonalEdgeStyle;rounded=0;orthogonalLoop=1;jettySize=auto;html=1;exitDx=0;exitDy=0;entryDx=0;entryDy=0;noEdgeStyle=1;orthogonal=1;endArrow=none;startFill=0;entryX=1;entryY=0;labelBackgroundColor=none;strokeColor=#23445D;fontColor=default;" edge="1" parent="1" source="yaPjAHGIPYrJlEL3h2rD-147" target="MhQRXEk31BVcxS3c4wM8-14">
          <mxGeometry relative="1" as="geometry">
            <mxPoint x="2947.500000000002" y="954.9999999999998" as="targetPoint" />
          </mxGeometry>
        </mxCell>
        <mxCell id="yaPjAHGIPYrJlEL3h2rD-147" value="subtotal" style="ellipse;whiteSpace=wrap;html=1;labelBackgroundColor=none;fillColor=#182E3E;strokeColor=#FFFFFF;fontColor=#FFFFFF;" vertex="1" parent="1">
          <mxGeometry x="3085" y="775" width="120" height="80" as="geometry" />
        </mxCell>
        <mxCell id="yaPjAHGIPYrJlEL3h2rD-155" style="edgeStyle=orthogonalEdgeStyle;rounded=0;orthogonalLoop=1;jettySize=auto;html=1;exitDx=0;exitDy=0;entryDx=0;entryDy=0;noEdgeStyle=1;orthogonal=1;endArrow=none;startFill=0;entryX=1;entryY=0.5;labelBackgroundColor=none;strokeColor=#23445D;fontColor=default;" edge="1" parent="1" source="yaPjAHGIPYrJlEL3h2rD-148" target="MhQRXEk31BVcxS3c4wM8-14">
          <mxGeometry relative="1" as="geometry">
            <mxPoint x="2965.8333333333358" y="954.9999999999998" as="targetPoint" />
          </mxGeometry>
        </mxCell>
        <mxCell id="yaPjAHGIPYrJlEL3h2rD-148" value="metodoPago" style="ellipse;whiteSpace=wrap;html=1;labelBackgroundColor=none;fillColor=#182E3E;strokeColor=#FFFFFF;fontColor=#FFFFFF;" vertex="1" parent="1">
          <mxGeometry x="3235" y="775" width="120" height="80" as="geometry" />
        </mxCell>
        <mxCell id="Ar97DFepAcvgZv9MPQC0-1" style="edgeStyle=orthogonalEdgeStyle;rounded=0;orthogonalLoop=1;jettySize=auto;html=1;exitX=0;exitY=0.5;exitDx=0;exitDy=0;entryX=1;entryY=0.5;entryDx=0;entryDy=0;endArrow=none;startFill=0;labelBackgroundColor=none;strokeColor=#23445D;fontColor=default;" edge="1" parent="1" source="KsWK_WaDj9zSZEOz1UFS-5" target="yaPjAHGIPYrJlEL3h2rD-1">
          <mxGeometry relative="1" as="geometry">
            <Array as="points" />
            <mxPoint x="870" y="200" as="sourcePoint" />
          </mxGeometry>
        </mxCell>
        <mxCell id="KsWK_WaDj9zSZEOz1UFS-7" style="edgeStyle=orthogonalEdgeStyle;rounded=0;orthogonalLoop=1;jettySize=auto;html=1;exitX=0.5;exitY=1;exitDx=0;exitDy=0;entryX=0.5;entryY=0;entryDx=0;entryDy=0;endArrow=none;startFill=0;labelBackgroundColor=none;strokeColor=#23445D;fontColor=default;" edge="1" parent="1" source="KsWK_WaDj9zSZEOz1UFS-11" target="Ar97DFepAcvgZv9MPQC0-13">
          <mxGeometry relative="1" as="geometry">
            <mxPoint x="924" y="390" as="sourcePoint" />
            <Array as="points">
              <mxPoint x="924" y="370" />
              <mxPoint x="924" y="520" />
              <mxPoint x="730" y="520" />
            </Array>
          </mxGeometry>
        </mxCell>
        <mxCell id="EKdhJ5Bb1jWlvwmiai8i-10" value="&lt;span&gt;idMenu&lt;/span&gt;" style="ellipse;whiteSpace=wrap;html=1;fontStyle=0;labelBackgroundColor=none;fillColor=#182E3E;strokeColor=#FFFFFF;fontColor=#FFFFFF;" vertex="1" parent="1">
          <mxGeometry x="1080" y="410" width="120" height="80" as="geometry" />
        </mxCell>
        <mxCell id="0WnZ42bVohGaUP7WQ3oe-1" value="Tiene" style="rhombus;whiteSpace=wrap;html=1;labelBackgroundColor=none;fillColor=#182E3E;strokeColor=#FFFFFF;fontColor=#FFFFFF;" vertex="1" parent="1">
          <mxGeometry x="400" y="390" width="80" height="80" as="geometry" />
        </mxCell>
        <mxCell id="Ar97DFepAcvgZv9MPQC0-13" value="Tiene" style="rhombus;whiteSpace=wrap;html=1;labelBackgroundColor=none;fillColor=#182E3E;strokeColor=#FFFFFF;fontColor=#FFFFFF;" vertex="1" parent="1">
          <mxGeometry x="689.5" y="550" width="80" height="80" as="geometry" />
        </mxCell>
        <mxCell id="MhQRXEk31BVcxS3c4wM8-5" value="" style="endArrow=none;html=1;rounded=0;entryX=0.25;entryY=1;entryDx=0;entryDy=0;exitX=1;exitY=0.5;exitDx=0;exitDy=0;labelBackgroundColor=none;strokeColor=#23445D;fontColor=default;" edge="1" parent="1" source="yaPjAHGIPYrJlEL3h2rD-119" target="yaPjAHGIPYrJlEL3h2rD-55">
          <mxGeometry width="50" height="50" relative="1" as="geometry">
            <mxPoint x="2850" y="430" as="sourcePoint" />
            <mxPoint x="2900" y="380" as="targetPoint" />
            <Array as="points">
              <mxPoint x="2800" y="380" />
            </Array>
          </mxGeometry>
        </mxCell>
        <mxCell id="MhQRXEk31BVcxS3c4wM8-9" style="edgeStyle=orthogonalEdgeStyle;rounded=0;orthogonalLoop=1;jettySize=auto;html=1;exitX=1;exitY=0.5;exitDx=0;exitDy=0;endArrow=none;startFill=0;labelBackgroundColor=none;strokeColor=#23445D;fontColor=default;" edge="1" parent="1" source="MhQRXEk31BVcxS3c4wM8-6">
          <mxGeometry relative="1" as="geometry">
            <mxPoint x="3260" y="380" as="targetPoint" />
            <Array as="points">
              <mxPoint x="3100" y="380" />
            </Array>
          </mxGeometry>
        </mxCell>
        <mxCell id="MhQRXEk31BVcxS3c4wM8-6" value="Cliente" style="rounded=0;whiteSpace=wrap;html=1;labelBackgroundColor=none;fillColor=#182E3E;strokeColor=#FFFFFF;fontColor=#FFFFFF;" vertex="1" parent="1">
          <mxGeometry x="2980" y="350" width="120" height="60" as="geometry" />
        </mxCell>
        <mxCell id="MhQRXEk31BVcxS3c4wM8-10" value="&lt;u&gt;Id&lt;/u&gt;" style="ellipse;whiteSpace=wrap;html=1;labelBackgroundColor=none;fillColor=#182E3E;strokeColor=#FFFFFF;fontColor=#FFFFFF;" vertex="1" parent="1">
          <mxGeometry x="3150" y="350" width="120" height="80" as="geometry" />
        </mxCell>
        <mxCell id="MhQRXEk31BVcxS3c4wM8-11" value="" style="curved=1;endArrow=none;html=1;rounded=0;startFill=0;labelBackgroundColor=none;strokeColor=#23445D;fontColor=default;" edge="1" parent="1">
          <mxGeometry width="50" height="50" relative="1" as="geometry">
            <mxPoint x="2705" y="270" as="sourcePoint" />
            <mxPoint x="2970" y="280" as="targetPoint" />
            <Array as="points">
              <mxPoint x="2745" y="330" />
              <mxPoint x="2920" y="330" />
            </Array>
          </mxGeometry>
        </mxCell>
        <mxCell id="MhQRXEk31BVcxS3c4wM8-15" style="edgeStyle=orthogonalEdgeStyle;rounded=0;orthogonalLoop=1;jettySize=auto;html=1;exitX=0.5;exitY=1;exitDx=0;exitDy=0;entryX=1;entryY=0.5;entryDx=0;entryDy=0;endArrow=none;startFill=0;labelBackgroundColor=none;strokeColor=#23445D;fontColor=default;" edge="1" parent="1" source="MhQRXEk31BVcxS3c4wM8-14" target="yaPjAHGIPYrJlEL3h2rD-87">
          <mxGeometry relative="1" as="geometry" />
        </mxCell>
        <mxCell id="MhQRXEk31BVcxS3c4wM8-14" value="Paga" style="rhombus;whiteSpace=wrap;html=1;labelBackgroundColor=none;fillColor=#182E3E;strokeColor=#FFFFFF;fontColor=#FFFFFF;" vertex="1" parent="1">
          <mxGeometry x="2852.5" y="915" width="107.5" height="110" as="geometry" />
        </mxCell>
        <mxCell id="MhQRXEk31BVcxS3c4wM8-19" value="" style="edgeStyle=orthogonalEdgeStyle;rounded=0;orthogonalLoop=1;jettySize=auto;html=1;exitX=0.75;exitY=1;exitDx=0;exitDy=0;entryX=0.5;entryY=0;entryDx=0;entryDy=0;endArrow=none;startFill=0;labelBackgroundColor=none;strokeColor=#23445D;fontColor=default;" edge="1" parent="1" source="yaPjAHGIPYrJlEL3h2rD-87" target="MhQRXEk31BVcxS3c4wM8-18">
          <mxGeometry relative="1" as="geometry">
            <mxPoint x="2318" y="920" as="sourcePoint" />
            <mxPoint x="2590" y="1305" as="targetPoint" />
            <Array as="points">
              <mxPoint x="2320" y="920" />
            </Array>
          </mxGeometry>
        </mxCell>
        <mxCell id="MhQRXEk31BVcxS3c4wM8-18" value="sigue" style="rhombus;whiteSpace=wrap;html=1;labelBackgroundColor=none;fillColor=#182E3E;strokeColor=#FFFFFF;fontColor=#FFFFFF;" vertex="1" parent="1">
          <mxGeometry x="2280" y="1070" width="80" height="80" as="geometry" />
        </mxCell>
        <mxCell id="KsWK_WaDj9zSZEOz1UFS-1" value="N" style="text;html=1;align=center;verticalAlign=middle;resizable=0;points=[];autosize=1;strokeColor=none;fillColor=none;fontSize=18;labelBackgroundColor=none;fontColor=#FFFFFF;" vertex="1" parent="1">
          <mxGeometry x="480" y="390" width="40" height="40" as="geometry" />
        </mxCell>
        <mxCell id="KsWK_WaDj9zSZEOz1UFS-4" value="M" style="text;html=1;align=center;verticalAlign=middle;resizable=0;points=[];autosize=1;strokeColor=none;fillColor=none;fontSize=18;labelBackgroundColor=none;fontColor=#FFFFFF;" vertex="1" parent="1">
          <mxGeometry x="360" y="390" width="40" height="40" as="geometry" />
        </mxCell>
        <mxCell id="KsWK_WaDj9zSZEOz1UFS-6" style="edgeStyle=orthogonalEdgeStyle;rounded=0;orthogonalLoop=1;jettySize=auto;html=1;exitX=1;exitY=0.5;exitDx=0;exitDy=0;endArrow=none;startFill=0;labelBackgroundColor=none;strokeColor=#23445D;fontColor=default;" edge="1" parent="1" source="KsWK_WaDj9zSZEOz1UFS-5" target="KsWK_WaDj9zSZEOz1UFS-11">
          <mxGeometry relative="1" as="geometry">
            <mxPoint x="924" y="330" as="targetPoint" />
          </mxGeometry>
        </mxCell>
        <mxCell id="KsWK_WaDj9zSZEOz1UFS-5" value="Ofrece" style="shape=rhombus;double=1;perimeter=rhombusPerimeter;whiteSpace=wrap;html=1;align=center;labelBackgroundColor=none;fillColor=#182E3E;strokeColor=#FFFFFF;fontColor=#FFFFFF;" vertex="1" parent="1">
          <mxGeometry x="870" y="170" width="108" height="60" as="geometry" />
        </mxCell>
        <mxCell id="KsWK_WaDj9zSZEOz1UFS-10" value="" style="group;labelBackgroundColor=none;fontColor=#FFFFFF;" vertex="1" connectable="0" parent="1">
          <mxGeometry x="514.5" y="840" width="120" height="80" as="geometry" />
        </mxCell>
        <mxCell id="yaPjAHGIPYrJlEL3h2rD-30" value="&lt;span&gt;IdSeccion&lt;/span&gt;" style="ellipse;whiteSpace=wrap;html=1;fontStyle=0;labelBackgroundColor=none;fillColor=#182E3E;strokeColor=#FFFFFF;fontColor=#FFFFFF;" vertex="1" parent="KsWK_WaDj9zSZEOz1UFS-10">
          <mxGeometry width="120" height="80" as="geometry" />
        </mxCell>
        <mxCell id="KsWK_WaDj9zSZEOz1UFS-9" value="" style="edgeStyle=none;orthogonalLoop=1;jettySize=auto;html=1;rounded=0;endArrow=none;startFill=0;dashed=1;dashPattern=8 8;labelBackgroundColor=none;strokeColor=#23445D;fontColor=default;" edge="1" parent="KsWK_WaDj9zSZEOz1UFS-10">
          <mxGeometry width="100" relative="1" as="geometry">
            <mxPoint x="30" y="50.289999999999964" as="sourcePoint" />
            <mxPoint x="90" y="49.289999999999964" as="targetPoint" />
            <Array as="points" />
          </mxGeometry>
        </mxCell>
        <mxCell id="KsWK_WaDj9zSZEOz1UFS-11" value="Menu" style="shape=ext;margin=3;double=1;whiteSpace=wrap;html=1;align=center;labelBackgroundColor=none;fillColor=#182E3E;strokeColor=#FFFFFF;fontColor=#FFFFFF;" vertex="1" parent="1">
          <mxGeometry x="870" y="330" width="114" height="50" as="geometry" />
        </mxCell>
        <mxCell id="KsWK_WaDj9zSZEOz1UFS-13" value="" style="edgeStyle=none;orthogonalLoop=1;jettySize=auto;html=1;rounded=0;endArrow=none;startFill=0;dashed=1;dashPattern=8 8;labelBackgroundColor=none;strokeColor=#23445D;fontColor=default;" edge="1" parent="1">
          <mxGeometry width="100" relative="1" as="geometry">
            <mxPoint x="1111" y="459.82" as="sourcePoint" />
            <mxPoint x="1171" y="458.82" as="targetPoint" />
            <Array as="points" />
          </mxGeometry>
        </mxCell>
        <mxCell id="KsWK_WaDj9zSZEOz1UFS-19" style="edgeStyle=orthogonalEdgeStyle;rounded=0;orthogonalLoop=1;jettySize=auto;html=1;exitX=0;exitY=0.5;exitDx=0;exitDy=0;entryX=1;entryY=0.5;entryDx=0;entryDy=0;endArrow=none;startFill=0;labelBackgroundColor=none;strokeColor=#23445D;fontColor=default;" edge="1" parent="1" source="KsWK_WaDj9zSZEOz1UFS-18" target="EKdhJ5Bb1jWlvwmiai8i-14">
          <mxGeometry relative="1" as="geometry" />
        </mxCell>
        <mxCell id="KsWK_WaDj9zSZEOz1UFS-21" value="1" style="text;html=1;align=center;verticalAlign=middle;resizable=0;points=[];autosize=1;strokeColor=none;fillColor=none;fontSize=18;labelBackgroundColor=none;fontColor=#FFFFFF;" vertex="1" parent="1">
          <mxGeometry x="694.5" y="510" width="30" height="40" as="geometry" />
        </mxCell>
        <mxCell id="KsWK_WaDj9zSZEOz1UFS-24" value="N" style="text;html=1;align=center;verticalAlign=middle;resizable=0;points=[];autosize=1;strokeColor=none;fillColor=none;fontSize=18;labelBackgroundColor=none;fontColor=#FFFFFF;" vertex="1" parent="1">
          <mxGeometry x="689.5" y="630" width="40" height="40" as="geometry" />
        </mxCell>
        <mxCell id="KsWK_WaDj9zSZEOz1UFS-25" value="1" style="text;html=1;align=center;verticalAlign=middle;resizable=0;points=[];autosize=1;strokeColor=none;fillColor=none;fontSize=18;labelBackgroundColor=none;fontColor=#FFFFFF;" vertex="1" parent="1">
          <mxGeometry x="840" y="160" width="30" height="40" as="geometry" />
        </mxCell>
        <mxCell id="KsWK_WaDj9zSZEOz1UFS-26" value="N" style="text;html=1;align=center;verticalAlign=middle;resizable=0;points=[];autosize=1;strokeColor=none;fillColor=none;fontSize=18;labelBackgroundColor=none;fontColor=#FFFFFF;" vertex="1" parent="1">
          <mxGeometry x="978" y="160" width="40" height="40" as="geometry" />
        </mxCell>
        <mxCell id="KsWK_WaDj9zSZEOz1UFS-27" value="1" style="text;html=1;align=center;verticalAlign=middle;resizable=0;points=[];autosize=1;strokeColor=none;fillColor=none;fontSize=18;labelBackgroundColor=none;fontColor=#FFFFFF;" vertex="1" parent="1">
          <mxGeometry x="885" y="680" width="30" height="40" as="geometry" />
        </mxCell>
        <mxCell id="yaPjAHGIPYrJlEL3h2rD-46" style="edgeStyle=orthogonalEdgeStyle;rounded=0;orthogonalLoop=1;jettySize=auto;html=1;noEdgeStyle=1;orthogonal=1;endArrow=none;startFill=0;fixDash=0;metaEdit=0;backgroundOutline=0;labelBackgroundColor=none;strokeColor=#23445D;fontColor=default;" edge="1" parent="1" target="yaPjAHGIPYrJlEL3h2rD-45">
          <mxGeometry relative="1" as="geometry">
            <Array as="points">
              <mxPoint x="1269" y="668" />
              <mxPoint x="1269" y="592" />
            </Array>
            <mxPoint x="1269" y="680" as="sourcePoint" />
          </mxGeometry>
        </mxCell>
        <mxCell id="yaPjAHGIPYrJlEL3h2rD-42" style="edgeStyle=orthogonalEdgeStyle;rounded=0;orthogonalLoop=1;jettySize=auto;html=1;noEdgeStyle=1;orthogonal=1;endArrow=none;startFill=0;fixDash=0;metaEdit=0;backgroundOutline=0;exitX=0.5;exitY=1;exitDx=0;exitDy=0;labelBackgroundColor=none;strokeColor=#23445D;fontColor=default;" edge="1" parent="1" source="yaPjAHGIPYrJlEL3h2rD-37">
          <mxGeometry relative="1" as="geometry">
            <Array as="points">
              <mxPoint x="1044" y="820" />
              <mxPoint x="1227.75" y="752" />
            </Array>
            <mxPoint x="1044" y="840" as="sourcePoint" />
            <mxPoint x="1227.75" y="740" as="targetPoint" />
          </mxGeometry>
        </mxCell>
        <mxCell id="yaPjAHGIPYrJlEL3h2rD-37" value="nombre" style="ellipse;whiteSpace=wrap;html=1;direction=west;labelBackgroundColor=none;fillColor=#182E3E;strokeColor=#FFFFFF;fontColor=#FFFFFF;" vertex="1" parent="1">
          <mxGeometry x="984" y="840" width="120" height="80" as="geometry" />
        </mxCell>
        <mxCell id="yaPjAHGIPYrJlEL3h2rD-43" style="edgeStyle=orthogonalEdgeStyle;rounded=0;orthogonalLoop=1;jettySize=auto;html=1;noEdgeStyle=1;orthogonal=1;endArrow=none;startFill=0;fixDash=0;metaEdit=0;backgroundOutline=0;exitX=0.5;exitY=1;exitDx=0;exitDy=0;labelBackgroundColor=none;strokeColor=#23445D;fontColor=default;" edge="1" parent="1" source="yaPjAHGIPYrJlEL3h2rD-38">
          <mxGeometry relative="1" as="geometry">
            <Array as="points">
              <mxPoint x="1194" y="820" />
              <mxPoint x="1255.25" y="754" />
            </Array>
            <mxPoint x="1255.25" y="740" as="targetPoint" />
          </mxGeometry>
        </mxCell>
        <mxCell id="yaPjAHGIPYrJlEL3h2rD-38" value="descripcion" style="ellipse;whiteSpace=wrap;html=1;direction=west;labelBackgroundColor=none;fillColor=#182E3E;strokeColor=#FFFFFF;fontColor=#FFFFFF;" vertex="1" parent="1">
          <mxGeometry x="1134" y="840" width="120" height="80" as="geometry" />
        </mxCell>
        <mxCell id="yaPjAHGIPYrJlEL3h2rD-44" style="edgeStyle=orthogonalEdgeStyle;rounded=0;orthogonalLoop=1;jettySize=auto;html=1;noEdgeStyle=1;orthogonal=1;endArrow=none;startFill=0;fixDash=0;metaEdit=0;backgroundOutline=0;exitX=0.5;exitY=1;exitDx=0;exitDy=0;labelBackgroundColor=none;strokeColor=#23445D;fontColor=default;" edge="1" parent="1" source="yaPjAHGIPYrJlEL3h2rD-39">
          <mxGeometry relative="1" as="geometry">
            <Array as="points">
              <mxPoint x="1344" y="810" />
              <mxPoint x="1282.75" y="754" />
            </Array>
            <mxPoint x="1282.75" y="740" as="targetPoint" />
          </mxGeometry>
        </mxCell>
        <mxCell id="yaPjAHGIPYrJlEL3h2rD-39" value="precioBase" style="ellipse;whiteSpace=wrap;html=1;direction=west;labelBackgroundColor=none;fillColor=#182E3E;strokeColor=#FFFFFF;fontColor=#FFFFFF;" vertex="1" parent="1">
          <mxGeometry x="1284" y="840" width="120" height="80" as="geometry" />
        </mxCell>
        <mxCell id="yaPjAHGIPYrJlEL3h2rD-41" style="edgeStyle=orthogonalEdgeStyle;rounded=0;orthogonalLoop=1;jettySize=auto;html=1;noEdgeStyle=1;orthogonal=1;endArrow=none;startFill=0;fixDash=0;metaEdit=0;backgroundOutline=0;exitX=0.5;exitY=1;exitDx=0;exitDy=0;labelBackgroundColor=none;strokeColor=#23445D;fontColor=default;" edge="1" parent="1" source="yaPjAHGIPYrJlEL3h2rD-40">
          <mxGeometry relative="1" as="geometry">
            <Array as="points">
              <mxPoint x="1494" y="820" />
              <mxPoint x="1310.25" y="752" />
            </Array>
            <mxPoint x="1310.25" y="740" as="targetPoint" />
          </mxGeometry>
        </mxCell>
        <mxCell id="yaPjAHGIPYrJlEL3h2rD-40" value="ordenSeccion" style="ellipse;whiteSpace=wrap;html=1;direction=west;labelBackgroundColor=none;fillColor=#182E3E;strokeColor=#FFFFFF;fontColor=#FFFFFF;" vertex="1" parent="1">
          <mxGeometry x="1434" y="840" width="120" height="80" as="geometry" />
        </mxCell>
        <mxCell id="yaPjAHGIPYrJlEL3h2rD-45" value="disponibilidad" style="ellipse;whiteSpace=wrap;html=1;direction=west;labelBackgroundColor=none;fillColor=#182E3E;strokeColor=#FFFFFF;fontColor=#FFFFFF;" vertex="1" parent="1">
          <mxGeometry x="1209" y="560" width="120" height="80" as="geometry" />
        </mxCell>
        <mxCell id="KsWK_WaDj9zSZEOz1UFS-16" value="Plato" style="shape=ext;margin=3;double=1;whiteSpace=wrap;html=1;align=center;labelBackgroundColor=none;fillColor=#182E3E;strokeColor=#FFFFFF;fontColor=#FFFFFF;" vertex="1" parent="1">
          <mxGeometry x="1204" y="680" width="130" height="60" as="geometry" />
        </mxCell>
        <mxCell id="KsWK_WaDj9zSZEOz1UFS-17" value="" style="edgeStyle=none;orthogonalLoop=1;jettySize=auto;html=1;rounded=0;endArrow=none;startFill=0;dashed=1;dashPattern=8 8;labelBackgroundColor=none;strokeColor=#23445D;fontColor=default;" edge="1" parent="1">
          <mxGeometry width="100" relative="1" as="geometry">
            <mxPoint x="1014" y="891" as="sourcePoint" />
            <mxPoint x="1074" y="890" as="targetPoint" />
            <Array as="points" />
          </mxGeometry>
        </mxCell>
        <mxCell id="KsWK_WaDj9zSZEOz1UFS-20" style="edgeStyle=orthogonalEdgeStyle;rounded=0;orthogonalLoop=1;jettySize=auto;html=1;exitX=1;exitY=0.5;exitDx=0;exitDy=0;entryX=0;entryY=0.5;entryDx=0;entryDy=0;endArrow=none;startFill=0;labelBackgroundColor=none;strokeColor=#23445D;fontColor=default;" edge="1" parent="1" source="KsWK_WaDj9zSZEOz1UFS-18" target="KsWK_WaDj9zSZEOz1UFS-16">
          <mxGeometry relative="1" as="geometry" />
        </mxCell>
        <mxCell id="KsWK_WaDj9zSZEOz1UFS-18" value="Contiene" style="shape=rhombus;double=1;perimeter=rhombusPerimeter;whiteSpace=wrap;html=1;align=center;labelBackgroundColor=none;fillColor=#182E3E;strokeColor=#FFFFFF;fontColor=#FFFFFF;" vertex="1" parent="1">
          <mxGeometry x="920" y="690" width="120" height="60" as="geometry" />
        </mxCell>
        <mxCell id="KsWK_WaDj9zSZEOz1UFS-28" value="N" style="text;html=1;align=center;verticalAlign=middle;resizable=0;points=[];autosize=1;strokeColor=none;fillColor=none;fontSize=18;labelBackgroundColor=none;fontColor=#FFFFFF;" vertex="1" parent="1">
          <mxGeometry x="1040" y="680" width="40" height="40" as="geometry" />
        </mxCell>
        <mxCell id="SdMhbQ--woS6k7HEIm8N-1" value="Refiere" style="rhombus;whiteSpace=wrap;html=1;labelBackgroundColor=none;fillColor=#182E3E;strokeColor=#FFFFFF;fontColor=#FFFFFF;" vertex="1" parent="1">
          <mxGeometry x="3361" y="125" width="107.5" height="110" as="geometry" />
        </mxCell>
        <mxCell id="SdMhbQ--woS6k7HEIm8N-4" value="" style="endArrow=none;html=1;rounded=0;entryX=0;entryY=0.5;entryDx=0;entryDy=0;exitX=0.879;exitY=-0.022;exitDx=0;exitDy=0;exitPerimeter=0;labelBackgroundColor=none;strokeColor=#23445D;fontColor=default;" edge="1" parent="1" source="MhQRXEk31BVcxS3c4wM8-6" target="SdMhbQ--woS6k7HEIm8N-1">
          <mxGeometry width="50" height="50" relative="1" as="geometry">
            <mxPoint x="3080" y="340" as="sourcePoint" />
            <mxPoint x="3040" y="200" as="targetPoint" />
            <Array as="points">
              <mxPoint x="3085" y="180" />
            </Array>
          </mxGeometry>
        </mxCell>
        <mxCell id="SdMhbQ--woS6k7HEIm8N-6" value="&lt;u&gt;fechaReferencia&lt;/u&gt;" style="ellipse;whiteSpace=wrap;html=1;labelBackgroundColor=none;fillColor=#182E3E;strokeColor=#FFFFFF;fontColor=#FFFFFF;" vertex="1" parent="1">
          <mxGeometry x="3555" y="140" width="120" height="80" as="geometry" />
        </mxCell>
        <mxCell id="SdMhbQ--woS6k7HEIm8N-7" value="" style="endArrow=none;html=1;rounded=0;entryX=0;entryY=0.5;entryDx=0;entryDy=0;exitX=1;exitY=0.5;exitDx=0;exitDy=0;labelBackgroundColor=none;strokeColor=#23445D;fontColor=default;" edge="1" parent="1" source="SdMhbQ--woS6k7HEIm8N-1" target="SdMhbQ--woS6k7HEIm8N-6">
          <mxGeometry width="50" height="50" relative="1" as="geometry">
            <mxPoint x="3390" y="420" as="sourcePoint" />
            <mxPoint x="3440" y="370" as="targetPoint" />
          </mxGeometry>
        </mxCell>
        <mxCell id="SdMhbQ--woS6k7HEIm8N-8" value="&lt;span&gt;nombre&lt;/span&gt;" style="ellipse;whiteSpace=wrap;html=1;fontStyle=0;labelBackgroundColor=none;fillColor=#182E3E;strokeColor=#FFFFFF;fontColor=#FFFFFF;" vertex="1" parent="1">
          <mxGeometry x="1209" y="315" width="120" height="80" as="geometry" />
        </mxCell>
        <mxCell id="SdMhbQ--woS6k7HEIm8N-10" value="descripcion" style="ellipse;whiteSpace=wrap;html=1;labelBackgroundColor=none;fillColor=#182E3E;strokeColor=#FFFFFF;fontColor=#FFFFFF;" vertex="1" parent="1">
          <mxGeometry x="1080" y="220" width="120" height="80" as="geometry" />
        </mxCell>
        <mxCell id="SdMhbQ--woS6k7HEIm8N-20" value="nombre" style="ellipse;whiteSpace=wrap;html=1;direction=west;labelBackgroundColor=none;fillColor=#182E3E;strokeColor=#FFFFFF;fontColor=#FFFFFF;" vertex="1" parent="1">
          <mxGeometry x="1527" y="460" width="120" height="80" as="geometry" />
        </mxCell>
        <mxCell id="SdMhbQ--woS6k7HEIm8N-25" value="&lt;u&gt;id&lt;/u&gt;" style="ellipse;whiteSpace=wrap;html=1;direction=west;labelBackgroundColor=none;fillColor=#182E3E;strokeColor=#FFFFFF;fontColor=#FFFFFF;" vertex="1" parent="1">
          <mxGeometry x="1810" y="460" width="120" height="80" as="geometry" />
        </mxCell>
        <mxCell id="SdMhbQ--woS6k7HEIm8N-37" value="ubicacionAsociada" style="rhombus;whiteSpace=wrap;html=1;labelBackgroundColor=none;fillColor=#182E3E;strokeColor=#FFFFFF;fontColor=#FFFFFF;" vertex="1" parent="1">
          <mxGeometry x="3279.5" y="470" width="140" height="135" as="geometry" />
        </mxCell>
        <mxCell id="SdMhbQ--woS6k7HEIm8N-38" value="" style="endArrow=none;html=1;rounded=0;entryX=0.75;entryY=1;entryDx=0;entryDy=0;exitX=0;exitY=0.5;exitDx=0;exitDy=0;edgeStyle=orthogonalEdgeStyle;labelBackgroundColor=none;strokeColor=#23445D;fontColor=default;" edge="1" parent="1" source="SdMhbQ--woS6k7HEIm8N-37" target="MhQRXEk31BVcxS3c4wM8-6">
          <mxGeometry width="50" height="50" relative="1" as="geometry">
            <mxPoint x="3280" y="460" as="sourcePoint" />
            <mxPoint x="3330" y="410" as="targetPoint" />
          </mxGeometry>
        </mxCell>
        <mxCell id="SdMhbQ--woS6k7HEIm8N-39" value="" style="endArrow=none;html=1;rounded=0;exitX=1;exitY=0.5;exitDx=0;exitDy=0;entryX=0;entryY=0.5;entryDx=0;entryDy=0;labelBackgroundColor=none;strokeColor=#23445D;fontColor=default;" edge="1" parent="1" source="SdMhbQ--woS6k7HEIm8N-37" target="yaPjAHGIPYrJlEL3h2rD-75">
          <mxGeometry width="50" height="50" relative="1" as="geometry">
            <mxPoint x="3500" y="460" as="sourcePoint" />
            <mxPoint x="3550" y="410" as="targetPoint" />
          </mxGeometry>
        </mxCell>
        <mxCell id="SdMhbQ--woS6k7HEIm8N-40" value="cantidad" style="ellipse;whiteSpace=wrap;html=1;labelBackgroundColor=none;fillColor=#182E3E;strokeColor=#FFFFFF;fontColor=#FFFFFF;" vertex="1" parent="1">
          <mxGeometry x="2130" y="695" width="120" height="80" as="geometry" />
        </mxCell>
        <mxCell id="SdMhbQ--woS6k7HEIm8N-41" style="edgeStyle=orthogonalEdgeStyle;rounded=0;orthogonalLoop=1;jettySize=auto;html=1;exitDx=0;exitDy=0;noEdgeStyle=1;orthogonal=1;endArrow=none;startFill=0;exitX=1;exitY=1;entryX=0.5;entryY=0;entryDx=0;entryDy=0;labelBackgroundColor=none;strokeColor=#23445D;fontColor=default;" edge="1" parent="1" source="SdMhbQ--woS6k7HEIm8N-40" target="yaPjAHGIPYrJlEL3h2rD-87">
          <mxGeometry relative="1" as="geometry">
            <mxPoint x="2298" y="930" as="targetPoint" />
            <mxPoint x="2178" y="1060" as="sourcePoint" />
          </mxGeometry>
        </mxCell>
        <mxCell id="SdMhbQ--woS6k7HEIm8N-43" value="&lt;u&gt;id&lt;/u&gt;" style="ellipse;whiteSpace=wrap;html=1;labelBackgroundColor=none;fillColor=#182E3E;strokeColor=#FFFFFF;fontColor=#FFFFFF;" vertex="1" parent="1">
          <mxGeometry x="2038" y="850" width="120" height="80" as="geometry" />
        </mxCell>
        <mxCell id="SdMhbQ--woS6k7HEIm8N-45" value="" style="endArrow=none;html=1;rounded=0;entryX=0;entryY=0.5;entryDx=0;entryDy=0;exitX=1;exitY=0.5;exitDx=0;exitDy=0;labelBackgroundColor=none;strokeColor=#23445D;fontColor=default;" edge="1" parent="1" source="SdMhbQ--woS6k7HEIm8N-43" target="yaPjAHGIPYrJlEL3h2rD-87">
          <mxGeometry width="50" height="50" relative="1" as="geometry">
            <mxPoint x="1960" y="960" as="sourcePoint" />
            <mxPoint x="2010" y="910" as="targetPoint" />
          </mxGeometry>
        </mxCell>
        <mxCell id="SdMhbQ--woS6k7HEIm8N-50" value="" style="endArrow=none;html=1;rounded=0;exitX=1;exitY=0.5;exitDx=0;exitDy=0;entryX=0;entryY=0.5;entryDx=0;entryDy=0;edgeStyle=orthogonalEdgeStyle;labelBackgroundColor=none;strokeColor=#23445D;fontColor=default;" edge="1" parent="1" source="SdMhbQ--woS6k7HEIm8N-54" target="yaPjAHGIPYrJlEL3h2rD-48">
          <mxGeometry width="50" height="50" relative="1" as="geometry">
            <mxPoint x="1788" y="640" as="sourcePoint" />
            <mxPoint x="1930" y="580" as="targetPoint" />
          </mxGeometry>
        </mxCell>
        <mxCell id="SdMhbQ--woS6k7HEIm8N-52" value="" style="endArrow=none;html=1;rounded=0;entryX=0.5;entryY=0;entryDx=0;entryDy=0;exitX=0;exitY=0;exitDx=0;exitDy=0;edgeStyle=orthogonalEdgeStyle;labelBackgroundColor=none;strokeColor=#23445D;fontColor=default;" edge="1" parent="1" source="SdMhbQ--woS6k7HEIm8N-54" target="SdMhbQ--woS6k7HEIm8N-20">
          <mxGeometry width="50" height="50" relative="1" as="geometry">
            <mxPoint x="1698" y="625" as="sourcePoint" />
            <mxPoint x="1910" y="580" as="targetPoint" />
          </mxGeometry>
        </mxCell>
        <mxCell id="SdMhbQ--woS6k7HEIm8N-53" value="" style="endArrow=none;html=1;rounded=0;exitX=1;exitY=0;exitDx=0;exitDy=0;entryX=0.5;entryY=0;entryDx=0;entryDy=0;edgeStyle=orthogonalEdgeStyle;labelBackgroundColor=none;strokeColor=#23445D;fontColor=default;" edge="1" parent="1" source="SdMhbQ--woS6k7HEIm8N-54" target="SdMhbQ--woS6k7HEIm8N-25">
          <mxGeometry width="50" height="50" relative="1" as="geometry">
            <mxPoint x="1758" y="625" as="sourcePoint" />
            <mxPoint x="1910" y="580" as="targetPoint" />
          </mxGeometry>
        </mxCell>
        <mxCell id="SdMhbQ--woS6k7HEIm8N-54" value="Opcion" style="rhombus;whiteSpace=wrap;html=1;labelBackgroundColor=none;fillColor=#182E3E;strokeColor=#FFFFFF;fontColor=#FFFFFF;" vertex="1" parent="1">
          <mxGeometry x="1680" y="605" width="92" height="75" as="geometry" />
        </mxCell>
        <mxCell id="SdMhbQ--woS6k7HEIm8N-55" value="" style="endArrow=none;html=1;rounded=0;exitX=1;exitY=0.5;exitDx=0;exitDy=0;entryX=0;entryY=0.5;entryDx=0;entryDy=0;edgeStyle=orthogonalEdgeStyle;labelBackgroundColor=none;strokeColor=#23445D;fontColor=default;" edge="1" parent="1" source="KsWK_WaDj9zSZEOz1UFS-16" target="SdMhbQ--woS6k7HEIm8N-54">
          <mxGeometry width="50" height="50" relative="1" as="geometry">
            <mxPoint x="1580" y="630" as="sourcePoint" />
            <mxPoint x="1630" y="580" as="targetPoint" />
          </mxGeometry>
        </mxCell>
        <mxCell id="SdMhbQ--woS6k7HEIm8N-56" value="" style="endArrow=none;html=1;rounded=0;entryX=0.5;entryY=1;entryDx=0;entryDy=0;exitX=0;exitY=0.25;exitDx=0;exitDy=0;edgeStyle=orthogonalEdgeStyle;labelBackgroundColor=none;strokeColor=#23445D;fontColor=default;" edge="1" parent="1" source="yaPjAHGIPYrJlEL3h2rD-87" target="SdMhbQ--woS6k7HEIm8N-54">
          <mxGeometry width="50" height="50" relative="1" as="geometry">
            <mxPoint x="1980" y="630" as="sourcePoint" />
            <mxPoint x="2030" y="580" as="targetPoint" />
            <Array as="points">
              <mxPoint x="2228" y="870" />
              <mxPoint x="2170" y="870" />
              <mxPoint x="2170" y="810" />
              <mxPoint x="1726" y="810" />
            </Array>
          </mxGeometry>
        </mxCell>
        <mxCell id="SdMhbQ--woS6k7HEIm8N-57" value="N" style="text;html=1;align=center;verticalAlign=middle;resizable=0;points=[];autosize=1;strokeColor=none;fillColor=none;fontSize=18;labelBackgroundColor=none;fontColor=#FFFFFF;" vertex="1" parent="1">
          <mxGeometry x="1350" y="670" width="40" height="40" as="geometry" />
        </mxCell>
        <mxCell id="SdMhbQ--woS6k7HEIm8N-58" value="1" style="text;html=1;align=center;verticalAlign=middle;resizable=0;points=[];autosize=1;strokeColor=none;fillColor=none;fontSize=18;labelBackgroundColor=none;fontColor=#FFFFFF;" vertex="1" parent="1">
          <mxGeometry x="2083" y="765" width="30" height="40" as="geometry" />
        </mxCell>
        <mxCell id="SdMhbQ--woS6k7HEIm8N-60" value="M" style="text;html=1;align=center;verticalAlign=middle;resizable=0;points=[];autosize=1;strokeColor=none;fillColor=none;fontSize=18;labelBackgroundColor=none;fontColor=#FFFFFF;" vertex="1" parent="1">
          <mxGeometry x="2135" y="460" width="40" height="40" as="geometry" />
        </mxCell>
        <mxCell id="SdMhbQ--woS6k7HEIm8N-61" value="" style="endArrow=none;html=1;rounded=0;entryX=0;entryY=0.5;entryDx=0;entryDy=0;exitX=1;exitY=0.25;exitDx=0;exitDy=0;edgeStyle=orthogonalEdgeStyle;labelBackgroundColor=none;strokeColor=#23445D;fontColor=default;" edge="1" parent="1" source="EKdhJ5Bb1jWlvwmiai8i-15" target="yaPjAHGIPYrJlEL3h2rD-113">
          <mxGeometry width="50" height="50" relative="1" as="geometry">
            <mxPoint x="2750" y="1150" as="sourcePoint" />
            <mxPoint x="2800" y="1100" as="targetPoint" />
          </mxGeometry>
        </mxCell>
        <mxCell id="SdMhbQ--woS6k7HEIm8N-62" value="" style="endArrow=none;html=1;rounded=0;entryX=0;entryY=0.5;entryDx=0;entryDy=0;exitX=1;exitY=0.5;exitDx=0;exitDy=0;labelBackgroundColor=none;strokeColor=#23445D;fontColor=default;" edge="1" parent="1" source="EKdhJ5Bb1jWlvwmiai8i-15" target="yaPjAHGIPYrJlEL3h2rD-114">
          <mxGeometry width="50" height="50" relative="1" as="geometry">
            <mxPoint x="2630" y="1220" as="sourcePoint" />
            <mxPoint x="2800" y="1100" as="targetPoint" />
          </mxGeometry>
        </mxCell>
        <mxCell id="SdMhbQ--woS6k7HEIm8N-63" value="" style="endArrow=none;html=1;rounded=0;exitX=1;exitY=0.75;exitDx=0;exitDy=0;entryX=0;entryY=0.5;entryDx=0;entryDy=0;edgeStyle=orthogonalEdgeStyle;labelBackgroundColor=none;strokeColor=#23445D;fontColor=default;" edge="1" parent="1" source="EKdhJ5Bb1jWlvwmiai8i-15" target="yaPjAHGIPYrJlEL3h2rD-115">
          <mxGeometry width="50" height="50" relative="1" as="geometry">
            <mxPoint x="2750" y="1150" as="sourcePoint" />
            <mxPoint x="2800" y="1100" as="targetPoint" />
          </mxGeometry>
        </mxCell>
        <mxCell id="SdMhbQ--woS6k7HEIm8N-65" value="" style="endArrow=none;dashed=1;html=1;rounded=0;labelBackgroundColor=none;strokeColor=#23445D;fontColor=default;" edge="1" parent="1">
          <mxGeometry width="50" height="50" relative="1" as="geometry">
            <mxPoint x="2665" y="1150" as="sourcePoint" />
            <mxPoint x="2715" y="1150" as="targetPoint" />
          </mxGeometry>
        </mxCell>
        <mxCell id="SdMhbQ--woS6k7HEIm8N-66" value="&lt;div style=&quot;text-align: center;&quot;&gt;&lt;span style=&quot;text-align: start; background-color: initial;&quot;&gt;1&lt;/span&gt;&lt;span style=&quot;color: rgba(0, 0, 0, 0); font-family: monospace; font-size: 0px; text-align: start; background-color: initial;&quot;&gt;%3CmxGraphModel%3E%3Croot%3E%3CmxCell%20id%3D%220%22%2F%3E%3CmxCell%20id%3D%221%22%20parent%3D%220%22%2F%3E%3CmxCell%20id%3D%222%22%20value%3D%22sigue%22%20style%3D%22rhombus%3BwhiteSpace%3Dwrap%3Bhtml%3D1%3B%22%20vertex%3D%221%22%20parent%3D%221%22%3E%3CmxGeometry%20x%3D%222280%22%20y%3D%221070%22%20width%3D%2280%22%20height%3D%2280%22%20as%3D%22geometry%22%2F%3E%3C%2FmxCell%3E%3C%2Froot%3E%3C%2FmxGraphModel%3E&lt;/span&gt;&lt;/div&gt;" style="text;html=1;align=center;verticalAlign=middle;resizable=0;points=[];autosize=1;strokeColor=none;fillColor=none;fontSize=18;labelBackgroundColor=none;fontColor=#FFFFFF;" vertex="1" parent="1">
          <mxGeometry x="2320" y="940" width="30" height="40" as="geometry" />
        </mxCell>
        <mxCell id="SdMhbQ--woS6k7HEIm8N-67" value="N" style="text;html=1;align=center;verticalAlign=middle;resizable=0;points=[];autosize=1;strokeColor=none;fillColor=none;fontSize=18;labelBackgroundColor=none;fontColor=#FFFFFF;" vertex="1" parent="1">
          <mxGeometry x="2378" y="1290" width="40" height="40" as="geometry" />
        </mxCell>
        <mxCell id="SdMhbQ--woS6k7HEIm8N-69" value="esAsignado" style="rhombus;whiteSpace=wrap;html=1;labelBackgroundColor=none;fillColor=#182E3E;strokeColor=#FFFFFF;fontColor=#FFFFFF;" vertex="1" parent="1">
          <mxGeometry x="2330" y="585" width="110" height="80" as="geometry" />
        </mxCell>
        <mxCell id="SdMhbQ--woS6k7HEIm8N-70" value="" style="endArrow=none;html=1;rounded=0;exitX=0.75;exitY=0;exitDx=0;exitDy=0;entryX=0.5;entryY=1;entryDx=0;entryDy=0;edgeStyle=orthogonalEdgeStyle;labelBackgroundColor=none;strokeColor=#23445D;fontColor=default;" edge="1" parent="1" source="yaPjAHGIPYrJlEL3h2rD-87" target="SdMhbQ--woS6k7HEIm8N-69">
          <mxGeometry width="50" height="50" relative="1" as="geometry">
            <mxPoint x="2360" y="730" as="sourcePoint" />
            <mxPoint x="2410" y="680" as="targetPoint" />
          </mxGeometry>
        </mxCell>
        <mxCell id="SdMhbQ--woS6k7HEIm8N-71" value="" style="endArrow=none;html=1;rounded=0;entryX=0;entryY=0.5;entryDx=0;entryDy=0;exitX=0.5;exitY=0;exitDx=0;exitDy=0;edgeStyle=orthogonalEdgeStyle;labelBackgroundColor=none;strokeColor=#23445D;fontColor=default;" edge="1" parent="1" source="SdMhbQ--woS6k7HEIm8N-69" target="yaPjAHGIPYrJlEL3h2rD-119">
          <mxGeometry width="50" height="50" relative="1" as="geometry">
            <mxPoint x="2560" y="730" as="sourcePoint" />
            <mxPoint x="2610" y="680" as="targetPoint" />
            <Array as="points">
              <mxPoint x="2385" y="410" />
              <mxPoint x="2530" y="410" />
              <mxPoint x="2530" y="380" />
            </Array>
          </mxGeometry>
        </mxCell>
        <mxCell id="SdMhbQ--woS6k7HEIm8N-72" value="&lt;div style=&quot;text-align: center;&quot;&gt;&lt;span style=&quot;text-align: start; background-color: initial;&quot;&gt;1&lt;/span&gt;&lt;span style=&quot;color: rgba(0, 0, 0, 0); font-family: monospace; font-size: 0px; text-align: start; background-color: initial;&quot;&gt;%3CmxGraphModel%3E%3Croot%3E%3CmxCell%20id%3D%220%22%2F%3E%3CmxCell%20id%3D%221%22%20parent%3D%220%22%2F%3E%3CmxCell%20id%3D%222%22%20value%3D%22sigue%22%20style%3D%22rhombus%3BwhiteSpace%3Dwrap%3Bhtml%3D1%3B%22%20vertex%3D%221%22%20parent%3D%221%22%3E%3CmxGeometry%20x%3D%222280%22%20y%3D%221070%22%20width%3D%2280%22%20height%3D%2280%22%20as%3D%22geometry%22%2F%3E%3C%2FmxCell%3E%3C%2Froot%3E%3C%2FmxGraphModel%3E&lt;/span&gt;&lt;/div&gt;" style="text;html=1;align=center;verticalAlign=middle;resizable=0;points=[];autosize=1;strokeColor=none;fillColor=none;fontSize=18;labelBackgroundColor=none;fontColor=#FFFFFF;" vertex="1" parent="1">
          <mxGeometry x="2570" y="340" width="30" height="40" as="geometry" />
        </mxCell>
        <mxCell id="SdMhbQ--woS6k7HEIm8N-73" value="&lt;div style=&quot;text-align: start;&quot;&gt;N&lt;/div&gt;" style="text;html=1;align=center;verticalAlign=middle;resizable=0;points=[];autosize=1;strokeColor=none;fillColor=none;fontSize=18;labelBackgroundColor=none;fontColor=#FFFFFF;" vertex="1" parent="1">
          <mxGeometry x="2325" y="720" width="40" height="40" as="geometry" />
        </mxCell>
        <mxCell id="SdMhbQ--woS6k7HEIm8N-74" value="" style="endArrow=none;html=1;rounded=0;entryX=0.5;entryY=1;entryDx=0;entryDy=0;exitX=1;exitY=0.25;exitDx=0;exitDy=0;edgeStyle=orthogonalEdgeStyle;labelBackgroundColor=none;strokeColor=#23445D;fontColor=default;" edge="1" parent="1" source="MhQRXEk31BVcxS3c4wM8-6" target="SdMhbQ--woS6k7HEIm8N-1">
          <mxGeometry width="50" height="50" relative="1" as="geometry">
            <mxPoint x="3060" y="400" as="sourcePoint" />
            <mxPoint x="3110" y="350" as="targetPoint" />
            <Array as="points">
              <mxPoint x="3100" y="300" />
              <mxPoint x="3415" y="300" />
            </Array>
          </mxGeometry>
        </mxCell>
        <mxCell id="SdMhbQ--woS6k7HEIm8N-75" value="&lt;div style=&quot;text-align: center;&quot;&gt;&lt;span style=&quot;text-align: start; background-color: initial;&quot;&gt;1&lt;/span&gt;&lt;span style=&quot;color: rgba(0, 0, 0, 0); font-family: monospace; font-size: 0px; text-align: start; background-color: initial;&quot;&gt;%3CmxGraphModel%3E%3Croot%3E%3CmxCell%20id%3D%220%22%2F%3E%3CmxCell%20id%3D%221%22%20parent%3D%220%22%2F%3E%3CmxCell%20id%3D%222%22%20value%3D%22sigue%22%20style%3D%22rhombus%3BwhiteSpace%3Dwrap%3Bhtml%3D1%3B%22%20vertex%3D%221%22%20parent%3D%221%22%3E%3CmxGeometry%20x%3D%222280%22%20y%3D%221070%22%20width%3D%2280%22%20height%3D%2280%22%20as%3D%22geometry%22%2F%3E%3C%2FmxCell%3E%3C%2Froot%3E%3C%2FmxGraphModel%3E&lt;/span&gt;&lt;/div&gt;" style="text;html=1;align=center;verticalAlign=middle;resizable=0;points=[];autosize=1;strokeColor=none;fillColor=none;fontSize=18;labelBackgroundColor=none;fontColor=#FFFFFF;" vertex="1" parent="1">
          <mxGeometry x="3321" y="143" width="30" height="40" as="geometry" />
        </mxCell>
        <mxCell id="SdMhbQ--woS6k7HEIm8N-76" value="&lt;div style=&quot;text-align: start;&quot;&gt;N&lt;/div&gt;" style="text;html=1;align=center;verticalAlign=middle;resizable=0;points=[];autosize=1;strokeColor=none;fillColor=none;fontSize=18;labelBackgroundColor=none;fontColor=#FFFFFF;" vertex="1" parent="1">
          <mxGeometry x="3345" y="260" width="40" height="40" as="geometry" />
        </mxCell>
        <mxCell id="SdMhbQ--woS6k7HEIm8N-77" value="" style="endArrow=none;html=1;rounded=0;entryX=0.25;entryY=0;entryDx=0;entryDy=0;edgeStyle=orthogonalEdgeStyle;exitX=0.25;exitY=0;exitDx=0;exitDy=0;labelBackgroundColor=none;strokeColor=#23445D;fontColor=default;" edge="1" parent="1" source="SdMhbQ--woS6k7HEIm8N-78" target="MhQRXEk31BVcxS3c4wM8-6">
          <mxGeometry width="50" height="50" relative="1" as="geometry">
            <mxPoint x="2400" y="230" as="sourcePoint" />
            <mxPoint x="2300" y="250" as="targetPoint" />
            <Array as="points">
              <mxPoint x="1827" y="-16" />
              <mxPoint x="1827" y="-150" />
              <mxPoint x="3530" y="-150" />
              <mxPoint x="3530" y="120" />
              <mxPoint x="3220" y="120" />
              <mxPoint x="3220" y="160" />
              <mxPoint x="3060" y="160" />
              <mxPoint x="3060" y="290" />
              <mxPoint x="3010" y="290" />
            </Array>
          </mxGeometry>
        </mxCell>
        <mxCell id="SdMhbQ--woS6k7HEIm8N-79" value="" style="endArrow=none;html=1;rounded=0;entryX=0.25;entryY=0;entryDx=0;entryDy=0;edgeStyle=orthogonalEdgeStyle;exitX=0.25;exitY=0;exitDx=0;exitDy=0;labelBackgroundColor=none;strokeColor=#23445D;fontColor=default;" edge="1" parent="1" source="yaPjAHGIPYrJlEL3h2rD-119" target="SdMhbQ--woS6k7HEIm8N-78">
          <mxGeometry width="50" height="50" relative="1" as="geometry">
            <mxPoint x="2650" y="350" as="sourcePoint" />
            <mxPoint x="3010" y="350" as="targetPoint" />
            <Array as="points">
              <mxPoint x="2650" y="200" />
              <mxPoint x="1827" y="200" />
              <mxPoint x="1827" y="-16" />
            </Array>
          </mxGeometry>
        </mxCell>
        <mxCell id="SdMhbQ--woS6k7HEIm8N-78" value="califica" style="rhombus;whiteSpace=wrap;html=1;labelBackgroundColor=none;fillColor=#182E3E;strokeColor=#FFFFFF;fontColor=#FFFFFF;" vertex="1" parent="1">
          <mxGeometry x="1772" y="-29" width="110" height="80" as="geometry" />
        </mxCell>
        <mxCell id="SdMhbQ--woS6k7HEIm8N-84" value="" style="endArrow=none;html=1;rounded=0;entryX=0;entryY=0.5;entryDx=0;entryDy=0;exitX=1;exitY=0;exitDx=0;exitDy=0;edgeStyle=orthogonalEdgeStyle;labelBackgroundColor=none;strokeColor=#23445D;fontColor=default;" edge="1" parent="1" source="SdMhbQ--woS6k7HEIm8N-78" target="yaPjAHGIPYrJlEL3h2rD-129">
          <mxGeometry width="50" height="50" relative="1" as="geometry">
            <mxPoint x="2060" y="210" as="sourcePoint" />
            <mxPoint x="2110" y="160" as="targetPoint" />
          </mxGeometry>
        </mxCell>
        <mxCell id="SdMhbQ--woS6k7HEIm8N-85" value="" style="endArrow=none;html=1;rounded=0;exitX=1;exitY=0.5;exitDx=0;exitDy=0;entryX=0;entryY=0.5;entryDx=0;entryDy=0;labelBackgroundColor=none;strokeColor=#23445D;fontColor=default;" edge="1" parent="1" source="SdMhbQ--woS6k7HEIm8N-78" target="yaPjAHGIPYrJlEL3h2rD-130">
          <mxGeometry width="50" height="50" relative="1" as="geometry">
            <mxPoint x="2060" y="210" as="sourcePoint" />
            <mxPoint x="2110" y="160" as="targetPoint" />
          </mxGeometry>
        </mxCell>
        <mxCell id="SdMhbQ--woS6k7HEIm8N-87" value="" style="endArrow=none;html=1;rounded=0;exitX=1;exitY=0.25;exitDx=0;exitDy=0;entryX=0;entryY=0.5;entryDx=0;entryDy=0;edgeStyle=orthogonalEdgeStyle;labelBackgroundColor=none;strokeColor=#23445D;fontColor=default;" edge="1" parent="1" source="yaPjAHGIPYrJlEL3h2rD-1" target="SdMhbQ--woS6k7HEIm8N-78">
          <mxGeometry width="50" height="50" relative="1" as="geometry">
            <mxPoint x="1020" y="110" as="sourcePoint" />
            <mxPoint x="1070" y="60" as="targetPoint" />
            <Array as="points">
              <mxPoint x="740" y="185" />
              <mxPoint x="740" y="150" />
              <mxPoint x="1230" y="150" />
              <mxPoint x="1230" y="11" />
            </Array>
          </mxGeometry>
        </mxCell>
        <mxCell id="SdMhbQ--woS6k7HEIm8N-88" value="&lt;div style=&quot;text-align: center;&quot;&gt;&lt;span style=&quot;text-align: start; background-color: initial;&quot;&gt;1&lt;/span&gt;&lt;span style=&quot;color: rgba(0, 0, 0, 0); font-family: monospace; font-size: 0px; text-align: start; background-color: initial;&quot;&gt;%3CmxGraphModel%3E%3Croot%3E%3CmxCell%20id%3D%220%22%2F%3E%3CmxCell%20id%3D%221%22%20parent%3D%220%22%2F%3E%3CmxCell%20id%3D%222%22%20value%3D%22sigue%22%20style%3D%22rhombus%3BwhiteSpace%3Dwrap%3Bhtml%3D1%3B%22%20vertex%3D%221%22%20parent%3D%221%22%3E%3CmxGeometry%20x%3D%222280%22%20y%3D%221070%22%20width%3D%2280%22%20height%3D%2280%22%20as%3D%22geometry%22%2F%3E%3C%2FmxCell%3E%3C%2Froot%3E%3C%2FmxGraphModel%3E&lt;/span&gt;&lt;/div&gt;" style="text;html=1;align=center;verticalAlign=middle;resizable=0;points=[];autosize=1;strokeColor=none;fillColor=none;fontSize=18;labelBackgroundColor=none;fontColor=#FFFFFF;" vertex="1" parent="1">
          <mxGeometry x="1800" y="-80" width="30" height="40" as="geometry" />
        </mxCell>
        <mxCell id="SdMhbQ--woS6k7HEIm8N-89" value="&lt;div style=&quot;text-align: start;&quot;&gt;N&lt;/div&gt;" style="text;html=1;align=center;verticalAlign=middle;resizable=0;points=[];autosize=1;strokeColor=none;fillColor=none;fontSize=18;labelBackgroundColor=none;fontColor=#FFFFFF;" vertex="1" parent="1">
          <mxGeometry x="1725" y="17.75" width="40" height="40" as="geometry" />
        </mxCell>
        <mxCell id="SdMhbQ--woS6k7HEIm8N-90" value="&lt;div style=&quot;text-align: start;&quot;&gt;M&lt;/div&gt;" style="text;html=1;align=center;verticalAlign=middle;resizable=0;points=[];autosize=1;strokeColor=none;fillColor=none;fontSize=18;labelBackgroundColor=none;fontColor=#FFFFFF;" vertex="1" parent="1">
          <mxGeometry x="1830" y="57.75" width="40" height="40" as="geometry" />
        </mxCell>
        <mxCell id="SdMhbQ--woS6k7HEIm8N-92" value="" style="endArrow=none;html=1;rounded=0;entryX=1;entryY=1;entryDx=0;entryDy=0;exitX=0;exitY=0.5;exitDx=0;exitDy=0;edgeStyle=orthogonalEdgeStyle;labelBackgroundColor=none;strokeColor=#23445D;fontColor=default;" edge="1" parent="1" source="yaPjAHGIPYrJlEL3h2rD-131" target="SdMhbQ--woS6k7HEIm8N-78">
          <mxGeometry width="50" height="50" relative="1" as="geometry">
            <mxPoint x="1890" y="50" as="sourcePoint" />
            <mxPoint x="1940" as="targetPoint" />
            <Array as="points">
              <mxPoint x="1910" y="111" />
              <mxPoint x="1910" y="31" />
            </Array>
          </mxGeometry>
        </mxCell>
        <mxCell id="SdMhbQ--woS6k7HEIm8N-93" value="&lt;div style=&quot;text-align: center;&quot;&gt;&lt;span style=&quot;text-align: start; background-color: initial;&quot;&gt;1&lt;/span&gt;&lt;span style=&quot;color: rgba(0, 0, 0, 0); font-family: monospace; font-size: 0px; text-align: start; background-color: initial;&quot;&gt;%3CmxGraphModel%3E%3Croot%3E%3CmxCell%20id%3D%220%22%2F%3E%3CmxCell%20id%3D%221%22%20parent%3D%220%22%2F%3E%3CmxCell%20id%3D%222%22%20value%3D%22sigue%22%20style%3D%22rhombus%3BwhiteSpace%3Dwrap%3Bhtml%3D1%3B%22%20vertex%3D%221%22%20parent%3D%221%22%3E%3CmxGeometry%20x%3D%222280%22%20y%3D%221070%22%20width%3D%2280%22%20height%3D%2280%22%20as%3D%22geometry%22%2F%3E%3C%2FmxCell%3E%3C%2Froot%3E%3C%2FmxGraphModel%3E&lt;/span&gt;&lt;/div&gt;" style="text;html=1;align=center;verticalAlign=middle;resizable=0;points=[];autosize=1;strokeColor=none;fillColor=none;fontSize=18;labelBackgroundColor=none;fontColor=#FFFFFF;" vertex="1" parent="1">
          <mxGeometry x="3000" y="540" width="30" height="40" as="geometry" />
        </mxCell>
        <mxCell id="SdMhbQ--woS6k7HEIm8N-94" value="&lt;div style=&quot;text-align: start;&quot;&gt;N&lt;/div&gt;" style="text;html=1;align=center;verticalAlign=middle;resizable=0;points=[];autosize=1;strokeColor=none;fillColor=none;fontSize=18;fontStyle=1;labelBackgroundColor=none;fontColor=#FFFFFF;" vertex="1" parent="1">
          <mxGeometry x="2365" y="850" width="40" height="40" as="geometry" />
        </mxCell>
        <mxCell id="SdMhbQ--woS6k7HEIm8N-95" value="&lt;div style=&quot;text-align: center;&quot;&gt;&lt;span style=&quot;text-align: start; background-color: initial;&quot;&gt;1&lt;/span&gt;&lt;span style=&quot;color: rgba(0, 0, 0, 0); font-family: monospace; font-size: 0px; text-align: start; background-color: initial;&quot;&gt;%3CmxGraphModel%3E%3Croot%3E%3CmxCell%20id%3D%220%22%2F%3E%3CmxCell%20id%3D%221%22%20parent%3D%220%22%2F%3E%3CmxCell%20id%3D%222%22%20value%3D%22sigue%22%20style%3D%22rhombus%3BwhiteSpace%3Dwrap%3Bhtml%3D1%3B%22%20vertex%3D%221%22%20parent%3D%221%22%3E%3CmxGeometry%20x%3D%222280%22%20y%3D%221070%22%20width%3D%2280%22%20height%3D%2280%22%20as%3D%22geometry%22%2F%3E%3C%2FmxCell%3E%3C%2Froot%3E%3C%2FmxGraphModel%3E&lt;/span&gt;&lt;/div&gt;" style="text;html=1;align=center;verticalAlign=middle;resizable=0;points=[];autosize=1;strokeColor=none;fillColor=none;fontSize=18;labelBackgroundColor=none;fontColor=#FFFFFF;" vertex="1" parent="1">
          <mxGeometry x="3070" y="420" width="30" height="40" as="geometry" />
        </mxCell>
        <mxCell id="SdMhbQ--woS6k7HEIm8N-96" value="&lt;div style=&quot;text-align: center;&quot;&gt;&lt;span style=&quot;text-align: start; background-color: initial;&quot;&gt;1&lt;/span&gt;&lt;span style=&quot;color: rgba(0, 0, 0, 0); font-family: monospace; font-size: 0px; text-align: start; background-color: initial;&quot;&gt;%3CmxGraphModel%3E%3Croot%3E%3CmxCell%20id%3D%220%22%2F%3E%3CmxCell%20id%3D%221%22%20parent%3D%220%22%2F%3E%3CmxCell%20id%3D%222%22%20value%3D%22sigue%22%20style%3D%22rhombus%3BwhiteSpace%3Dwrap%3Bhtml%3D1%3B%22%20vertex%3D%221%22%20parent%3D%221%22%3E%3CmxGeometry%20x%3D%222280%22%20y%3D%221070%22%20width%3D%2280%22%20height%3D%2280%22%20as%3D%22geometry%22%2F%3E%3C%2FmxCell%3E%3C%2Froot%3E%3C%2FmxGraphModel%3E&lt;/span&gt;&lt;/div&gt;" style="text;html=1;align=center;verticalAlign=middle;resizable=0;points=[];autosize=1;strokeColor=none;fillColor=none;fontSize=18;labelBackgroundColor=none;fontColor=#FFFFFF;" vertex="1" parent="1">
          <mxGeometry x="3450" y="500" width="30" height="40" as="geometry" />
        </mxCell>
        <mxCell id="SdMhbQ--woS6k7HEIm8N-97" value="" style="endArrow=none;html=1;rounded=0;exitX=1;exitY=0.25;exitDx=0;exitDy=0;entryX=0.5;entryY=1;entryDx=0;entryDy=0;edgeStyle=orthogonalEdgeStyle;labelBackgroundColor=none;strokeColor=#23445D;fontColor=default;" edge="1" parent="1" source="KsWK_WaDj9zSZEOz1UFS-11" target="SdMhbQ--woS6k7HEIm8N-10">
          <mxGeometry width="50" height="50" relative="1" as="geometry">
            <mxPoint x="1100" y="360" as="sourcePoint" />
            <mxPoint x="1150" y="310" as="targetPoint" />
            <Array as="points">
              <mxPoint x="1140" y="342" />
            </Array>
          </mxGeometry>
        </mxCell>
        <mxCell id="SdMhbQ--woS6k7HEIm8N-98" value="" style="endArrow=none;html=1;rounded=0;exitX=1;exitY=0.75;exitDx=0;exitDy=0;entryX=0.5;entryY=0;entryDx=0;entryDy=0;edgeStyle=orthogonalEdgeStyle;labelBackgroundColor=none;strokeColor=#23445D;fontColor=default;" edge="1" parent="1" source="KsWK_WaDj9zSZEOz1UFS-11" target="EKdhJ5Bb1jWlvwmiai8i-10">
          <mxGeometry width="50" height="50" relative="1" as="geometry">
            <mxPoint x="960" y="360" as="sourcePoint" />
            <mxPoint x="1010" y="310" as="targetPoint" />
          </mxGeometry>
        </mxCell>
        <mxCell id="SdMhbQ--woS6k7HEIm8N-99" value="" style="endArrow=none;html=1;rounded=0;exitX=1;exitY=0.5;exitDx=0;exitDy=0;entryX=0;entryY=0.5;entryDx=0;entryDy=0;labelBackgroundColor=none;strokeColor=#23445D;fontColor=default;" edge="1" parent="1" source="KsWK_WaDj9zSZEOz1UFS-11" target="SdMhbQ--woS6k7HEIm8N-8">
          <mxGeometry width="50" height="50" relative="1" as="geometry">
            <mxPoint x="960" y="360" as="sourcePoint" />
            <mxPoint x="1010" y="310" as="targetPoint" />
          </mxGeometry>
        </mxCell>
      </root>
    </mxGraphModel>
  </diagram>
</mxfile>
